<?xml version="1.0" encoding="UTF-8" standalone="no"?>
<!-- Created with Inkscape (http://www.inkscape.org/) -->

<svg
   width="60.000038mm"
   height="60.000019mm"
   viewBox="0 0 60.000038 60.000019"
   version="1.1"
   id="svg1"
   xml:space="preserve"
   inkscape:version="1.3.2 (091e20e, 2023-11-25, custom)"
   sodipodi:docname="anxiety.svg"
   xmlns:inkscape="http://www.inkscape.org/namespaces/inkscape"
   xmlns:sodipodi="http://sodipodi.sourceforge.net/DTD/sodipodi-0.dtd"
   xmlns="http://www.w3.org/2000/svg"
   xmlns:svg="http://www.w3.org/2000/svg"><sodipodi:namedview
     id="namedview1"
     pagecolor="#ffffff"
     bordercolor="#000000"
     borderopacity="0.25"
     inkscape:showpageshadow="2"
     inkscape:pageopacity="0.0"
     inkscape:pagecheckerboard="0"
     inkscape:deskcolor="#d1d1d1"
     inkscape:document-units="mm"
     inkscape:zoom="0.40818792"
     inkscape:cx="727.60605"
     inkscape:cy="167.81486"
     inkscape:window-width="1366"
     inkscape:window-height="745"
     inkscape:window-x="-8"
     inkscape:window-y="-8"
     inkscape:window-maximized="1"
     inkscape:current-layer="layer1"
     showguides="false" /><defs
     id="defs1" /><g
     inkscape:label="Layer 1"
     inkscape:groupmode="layer"
     id="layer1"
     transform="translate(-232.83342,-68.79167)"><path
       id="path41"
       style="fill:#59468d;fill-opacity:1;stroke-width:18;stroke-linecap:round;paint-order:fill markers stroke"
       d="M 292.83346,98.791673 A 30,30 0 0 1 262.83344,128.79169 30,30 0 0 1 232.83342,98.791673 30,30 0 0 1 262.83344,68.79167 30,30 0 0 1 292.83346,98.791673 Z" /><path
       id="path45"
       style="color:#000000;fill:#ffffff;stroke-linecap:round;stroke-linejoin:round;-inkscape-stroke:none;paint-order:fill markers stroke"
       d="m 265.34866,75.344238 c -2.12443,0.0073 -4.26171,0.2778 -6.28024,0.75551 -4.61377,1.091907 -8.66114,3.219807 -10.4376,6.289022 -3.15437,5.449838 -2.30775,7.688998 -2.78329,11.210685 -0.20878,1.54612 -1.03192,2.408533 -2.00557,3.339848 -0.48683,0.465656 -1.00684,0.926809 -1.45159,1.505851 -0.44474,0.579041 -0.8102,1.320601 -0.83199,2.189526 -0.0388,1.54608 0.87364,2.59746 1.68569,3.0391 0.40602,0.22082 0.77547,0.35416 1.02371,0.4687 0.24823,0.11453 0.33335,0.20289 0.31987,0.18345 0.29436,0.42451 0.32871,1.87684 0.23875,3.83801 -0.037,0.80761 -0.33276,1.60004 -0.26768,2.67994 0.0651,1.0799 0.63546,2.26066 1.99574,3.49229 1.70851,1.54693 4.18977,1.25254 6.35362,1.01545 1.08193,-0.11854 2.1142,-0.25547 2.93367,-0.27544 0.81946,-0.02 1.37697,0.12263 1.53892,0.24236 0.61148,0.45205 1.53292,2.04118 2.12132,3.48041 0.58841,1.43922 0.94309,2.70681 0.94309,2.70681 a 1,1 0 0 0 1.23249,0.69557 1,1 0 0 0 0.6935,-1.23249 c 0,0 -0.37977,-1.36807 -1.01751,-2.92798 -0.63775,-1.55992 -1.43247,-3.33135 -2.7833,-4.32997 -0.8192,-0.60561 -1.78638,-0.65873 -2.77709,-0.63459 -0.99071,0.0241 -2.05496,0.17191 -3.10368,0.28681 -2.09747,0.22981 -4.00931,0.20002 -4.79299,-0.50953 -1.13191,-1.02486 -1.30812,-1.56624 -1.34204,-2.12907 -0.0339,-0.56283 0.21779,-1.33589 0.26975,-2.46859 0.0118,-0.25761 0.0286,-0.50241 0.0444,-0.75292 a 1,1 0 0 0 0.33435,-0.0403 c 2.23968,-0.71276 3.18499,-0.0721 4.62504,0.75034 a 1,1 0 0 0 1.36529,-0.3731 1,1 0 0 0 -0.3731,-1.36529 c -1.08588,-0.62013 -2.45735,-1.33126 -4.26538,-1.26969 -0.50825,0.0173 -1.05131,0.097 -1.63194,0.2558 -0.0432,-0.82157 -0.21503,-1.58475 -0.69246,-2.27325 -0.33294,-0.48014 -0.76916,-0.69726 -1.125,-0.86145 -0.35584,-0.16419 -0.67192,-0.28227 -0.9064,-0.40979 -0.46897,-0.25506 -0.66382,-0.29223 -0.64027,-1.23093 0.009,-0.37347 0.13251,-0.65209 0.41754,-1.023196 0.28504,-0.371107 0.73598,-0.7872 1.24851,-1.277442 1.02504,-0.980482 2.31108,-2.340905 2.605,-4.517553 0.52985,-3.923851 -0.43668,-5.347943 2.53163,-10.476363 1.28488,-2.219916 4.88985,-4.333473 9.16792,-5.345927 4.27804,-1.012454 9.17548,-0.97282 12.91807,0.545186 7.59028,3.078631 11.40316,10.773647 8.67544,16.980359 -1.45673,3.314668 -2.92447,5.447256 -4.10517,7.308596 -1.1807,1.86134 -2.11797,3.53103 -2.20504,5.70095 -0.0899,2.23997 0.82736,4.82586 1.72031,6.94944 0.89295,2.12357 1.80661,3.75946 1.80661,3.75946 a 1,1 0 0 0 1.36167,0.38499 1,1 0 0 0 0.38448,-1.36116 c 0,0 -0.86264,-1.54634 -1.70894,-3.55895 -0.84629,-2.01262 -1.62953,-4.51779 -1.56632,-6.09369 0.066,-1.64599 0.74856,-2.90107 1.89653,-4.71082 1.14798,-1.80975 2.71698,-4.094478 4.24625,-7.574214 3.24429,-7.382116 -1.29533,-16.207774 -9.75393,-19.638595 -2.1409,-0.86836 -4.52098,-1.299972 -6.94169,-1.378727 -0.30259,-0.0098 -0.6055,-0.01448 -0.90899,-0.01344 z m 0.28836,6.284888 c -1.39044,0.0045 -2.79981,0.300323 -4.15117,0.936377 -4.34586,2.0455 -6.73229,7.396967 -4.44573,11.886096 1.7476,3.430982 6.1375,5.316134 9.70484,3.262333 1.25825,-0.724375 2.20432,-1.911845 2.64221,-3.275769 0.43789,-1.36392 0.3313,-2.960187 -0.60926,-4.273641 -0.57853,-0.807845 -1.45181,-1.385255 -2.4505,-1.607654 -0.99868,-0.222398 -2.2336,0.01435 -3.01945,0.965316 -0.51107,0.618447 -0.57705,1.213143 -0.47284,1.919263 0.0521,0.353063 0.18187,0.778425 0.59066,1.109493 0.40881,0.331058 1.03698,0.381709 1.50224,0.230994 a 1,1 0 0 0 0.64492,-1.258838 1,1 0 0 0 -0.73122,-0.649056 c -0.003,-0.01323 0.0344,-0.110725 0.008,-0.07906 0.2819,-0.341133 0.57393,-0.391346 1.04335,-0.286804 0.46942,0.104538 1.00524,0.466481 1.25884,0.820621 0.54785,0.765108 0.61064,1.628806 0.33124,2.499073 -0.2794,0.870271 -0.93714,1.692435 -1.73684,2.15284 -2.4729,1.423687 -5.65548,0.05159 -6.92309,-2.437061 -1.73223,-3.400819 0.13087,-7.576621 3.51503,-9.169466 4.32199,-2.034265 9.49502,0.329625 11.40292,4.613672 2.3335,5.239675 -0.53533,11.410855 -5.72213,13.628105 -6.15538,2.6313 -13.3287,-0.7438 -15.85175,-6.835238 a 1,1 0 0 0 -1.30689,-0.540019 1,1 0 0 0 -0.54157,1.307414 c 2.93529,7.086723 11.25472,10.999283 18.48724,7.907523 6.17365,-2.63911 9.57473,-9.963195 6.76031,-16.282722 -1.75693,-3.945055 -5.75832,-6.557332 -9.92962,-6.543787 z" /><g
       id="g134"
       transform="translate(0,1.058334)" /></g></svg>
