<?xml version="1.0" encoding="UTF-8" standalone="no"?>
<!-- Created with Inkscape (http://www.inkscape.org/) -->

<svg
   width="210mm"
   height="297mm"
   viewBox="0 0 210 297"
   version="1.1"
   id="svg1"
   xml:space="preserve"
   inkscape:version="1.3.2 (091e20e, 2023-11-25, custom)"
   sodipodi:docname="ansiedad.svg"
   xmlns:inkscape="http://www.inkscape.org/namespaces/inkscape"
   xmlns:sodipodi="http://sodipodi.sourceforge.net/DTD/sodipodi-0.dtd"
   xmlns="http://www.w3.org/2000/svg"
   xmlns:svg="http://www.w3.org/2000/svg"><sodipodi:namedview
     id="namedview1"
     pagecolor="#ffffff"
     bordercolor="#000000"
     borderopacity="0.25"
     inkscape:showpageshadow="2"
     inkscape:pageopacity="0.0"
     inkscape:pagecheckerboard="0"
     inkscape:deskcolor="#d1d1d1"
     inkscape:document-units="mm"
     inkscape:zoom="0.48568153"
     inkscape:cx="1603.9317"
     inkscape:cy="474.59083"
     inkscape:window-width="1366"
     inkscape:window-height="745"
     inkscape:window-x="-8"
     inkscape:window-y="-8"
     inkscape:window-maximized="1"
     inkscape:current-layer="layer1"
     showguides="false" /><defs
     id="defs1" /><g
     inkscape:label="Layer 1"
     inkscape:groupmode="layer"
     id="layer1"><path
       id="path41"
       style="fill:#59468d;fill-opacity:1;stroke-width:18;stroke-linecap:round;paint-order:fill markers stroke"
       d="M 292.83346,98.791673 A 30,30 0 0 1 262.83344,128.79169 30,30 0 0 1 232.83342,98.791673 30,30 0 0 1 262.83344,68.79167 30,30 0 0 1 292.83346,98.791673 Z" /><path
       id="path43"
       style="fill:#59468d;fill-opacity:1;stroke-width:18;stroke-linecap:round;paint-order:fill markers stroke"
       d="M 296.33346,98.791673 A 30,30 0 0 0 326.33348,128.79169 30,30 0 0 0 356.3335,98.791673 30,30 0 0 0 326.33348,68.79167 30,30 0 0 0 296.33346,98.791673 Z" /><path
       id="path44"
       style="fill:#59468d;fill-opacity:1;stroke-width:18;stroke-linecap:round;paint-order:fill markers stroke"
       d="M 483.86275,98.791673 A 30,30 0 0 1 453.86273,128.79169 30,30 0 0 1 423.86271,98.791673 30,30 0 0 1 453.86273,68.79167 30,30 0 0 1 483.86275,98.791673 Z" /><path
       id="path45"
       style="color:#000000;fill:#ffffff;stroke-linecap:round;stroke-linejoin:round;-inkscape-stroke:none;paint-order:fill markers stroke"
       d="M 265.34866 75.344238 C 263.22423 75.351575 261.08695 75.622038 259.06842 76.099748 C 254.45465 77.191655 250.40728 79.319555 248.63082 82.38877 C 245.47645 87.838608 246.32307 90.077768 245.84753 93.599455 C 245.63875 95.145575 244.81561 96.007988 243.84196 96.939303 C 243.35513 97.404959 242.83512 97.866112 242.39037 98.445154 C 241.94563 99.024195 241.58017 99.765755 241.55838 100.63468 C 241.51958 102.18076 242.43202 103.23214 243.24407 103.67378 C 243.65009 103.8946 244.01954 104.02794 244.26778 104.14248 C 244.51601 104.25701 244.60113 104.34537 244.58765 104.32593 C 244.88201 104.75044 244.91636 106.20277 244.8264 108.16394 C 244.7894 108.97155 244.49364 109.76398 244.55872 110.84388 C 244.62382 111.92378 245.19418 113.10454 246.55446 114.33617 C 248.26297 115.8831 250.74423 115.58871 252.90808 115.35162 C 253.99001 115.23308 255.02228 115.09615 255.84175 115.07618 C 256.66121 115.05618 257.21872 115.19881 257.38067 115.31854 C 257.99215 115.77059 258.91359 117.35972 259.50199 118.79895 C 260.0904 120.23817 260.44508 121.50576 260.44508 121.50576 A 1 1 0 0 0 261.67757 122.20133 A 1 1 0 0 0 262.37107 120.96884 C 262.37107 120.96884 261.9913 119.60077 261.35356 118.04086 C 260.71581 116.48094 259.92109 114.70951 258.57026 113.71089 C 257.75106 113.10528 256.78388 113.05216 255.79317 113.0763 C 254.80246 113.1004 253.73821 113.24821 252.68949 113.36311 C 250.59202 113.59292 248.68018 113.56313 247.8965 112.85358 C 246.76459 111.82872 246.58838 111.28734 246.55446 110.72451 C 246.52056 110.16168 246.77225 109.38862 246.82421 108.25592 C 246.83602 107.99831 246.85277 107.75351 246.86865 107.503 A 1 1 0 0 0 247.203 107.46269 C 249.44268 106.74993 250.38799 107.39063 251.82804 108.21303 A 1 1 0 0 0 253.19333 107.83993 A 1 1 0 0 0 252.82023 106.47464 C 251.73435 105.85451 250.36288 105.14338 248.55485 105.20495 C 248.0466 105.22224 247.50354 105.30193 246.92291 105.46075 C 246.87975 104.63918 246.70788 103.876 246.23045 103.1875 C 245.89751 102.70736 245.46129 102.49024 245.10545 102.32605 C 244.74961 102.16186 244.43353 102.04378 244.19905 101.91626 C 243.73008 101.6612 243.53523 101.62403 243.55878 100.68533 C 243.56778 100.31186 243.69129 100.03324 243.97632 99.662134 C 244.26136 99.291027 244.7123 98.874934 245.22483 98.384692 C 246.24987 97.40421 247.53591 96.043787 247.82983 93.867139 C 248.35968 89.943288 247.39315 88.519196 250.36146 83.390776 C 251.64634 81.17086 255.25131 79.057303 259.52938 78.044849 C 263.80742 77.032395 268.70486 77.072029 272.44745 78.590035 C 280.03773 81.668666 283.85061 89.363682 281.12289 95.570394 C 279.66616 98.885062 278.19842 101.01765 277.01772 102.87899 C 275.83702 104.74033 274.89975 106.41002 274.81268 108.57994 C 274.72278 110.81991 275.64004 113.4058 276.53299 115.52938 C 277.42594 117.65295 278.3396 119.28884 278.3396 119.28884 A 1 1 0 0 0 279.70127 119.67383 A 1 1 0 0 0 280.08575 118.31267 C 280.08575 118.31267 279.22311 116.76633 278.37681 114.75372 C 277.53052 112.7411 276.74728 110.23593 276.81049 108.66003 C 276.87649 107.01404 277.55905 105.75896 278.70702 103.94921 C 279.855 102.13946 281.424 99.854732 282.95327 96.374996 C 286.19756 88.99288 281.65794 80.167222 273.19934 76.736401 C 271.05844 75.868041 268.67836 75.436429 266.25765 75.357674 C 265.95506 75.347829 265.65215 75.34319 265.34866 75.344238 z M 265.63702 81.629126 C 264.24658 81.633641 262.83721 81.929449 261.48585 82.565503 C 257.13999 84.611003 254.75356 89.96247 257.04012 94.451599 C 258.78772 97.882581 263.17762 99.767733 266.74496 97.713932 C 268.00321 96.989557 268.94928 95.802087 269.38717 94.438163 C 269.82506 93.074243 269.71847 91.477976 268.77791 90.164522 C 268.19938 89.356677 267.3261 88.779267 266.32741 88.556868 C 265.32873 88.33447 264.09381 88.571214 263.30796 89.522184 C 262.79689 90.140631 262.73091 90.735327 262.83512 91.441447 C 262.88722 91.79451 263.01699 92.219872 263.42578 92.55094 C 263.83459 92.881998 264.46276 92.932649 264.92802 92.781934 A 1 1 0 0 0 265.57294 91.523096 A 1 1 0 0 0 264.84172 90.87404 C 264.83869 90.860807 264.87616 90.763315 264.84998 90.794975 C 265.13188 90.453842 265.42391 90.403629 265.89333 90.508171 C 266.36275 90.612709 266.89857 90.974652 267.15217 91.328792 C 267.70002 92.0939 267.76281 92.957598 267.48341 93.827865 C 267.20401 94.698136 266.54627 95.5203 265.74657 95.980705 C 263.27367 97.404392 260.09109 96.032298 258.82348 93.543644 C 257.09125 90.142825 258.95435 85.967023 262.33851 84.374178 C 266.6605 82.339913 271.83353 84.703803 273.74143 88.98785 C 276.07493 94.227525 273.2061 100.39871 268.0193 102.61596 C 261.86392 105.24726 254.6906 101.87216 252.16755 95.780717 A 1 1 0 0 0 250.86066 95.240698 A 1 1 0 0 0 250.31909 96.548112 C 253.25438 103.63484 261.57381 107.5474 268.80633 104.45564 C 274.97998 101.81653 278.38106 94.49244 275.56664 88.172913 C 273.80971 84.227858 269.80832 81.615581 265.63702 81.629126 z " /><path
       id="path46"
       style="color:#000000;fill:#ffffff;stroke-linecap:round;stroke-linejoin:round;-inkscape-stroke:none;paint-order:fill markers stroke"
       d="M 325.30211 75.344238 C 324.99862 75.34319 324.69519 75.34783 324.3926 75.357674 C 321.97189 75.436434 319.59234 75.868042 317.45142 76.736401 C 308.99285 80.16722 304.45321 88.992887 307.6975 96.374996 C 309.22677 99.854728 310.79733 102.13946 311.9453 103.94921 C 313.09328 105.75896 313.77578 107.01405 313.84183 108.66003 C 313.90503 110.23593 313.12181 112.7411 312.27551 114.75372 C 311.42921 116.76633 310.56451 118.31267 310.56451 118.31267 A 1 1 0 0 0 310.95105 119.67383 A 1 1 0 0 0 312.31065 119.28884 C 312.31065 119.28884 313.22638 117.65295 314.11933 115.52938 C 315.01228 113.4058 315.92949 110.8199 315.83964 108.57994 C 315.75254 106.41002 314.81375 104.74033 313.63305 102.87899 C 312.45235 101.01765 310.98616 98.885059 309.52943 95.570394 C 306.8017 89.363688 310.61304 81.668664 318.20332 78.590035 C 321.9459 77.072031 326.84284 77.032396 331.12087 78.044849 C 335.39894 79.057302 339.00443 81.170862 340.28931 83.390776 C 342.70654 87.567096 342.51955 89.302645 342.65092 91.916353 A 1 1 0 0 0 342.60958 91.933407 C 341.16897 92.756316 339.86931 93.547483 337.68947 92.853764 A 1 1 0 0 0 336.43373 93.503853 A 1 1 0 0 0 337.08382 94.759591 C 337.40637 94.862239 337.71973 94.937568 338.02485 94.991101 A 1.8627785 1.7385932 0 0 0 337.72357 95.93833 A 1.8627785 1.7385932 0 0 0 339.58651 97.676725 A 1.8627785 1.7385932 0 0 0 341.44893 95.93833 A 1.8627785 1.7385932 0 0 0 341.01898 94.830387 C 341.70846 94.636404 342.32219 94.35831 342.86176 94.076428 C 343.20888 96.12744 344.43534 97.437148 345.42594 98.384692 C 345.93847 98.874934 346.38889 99.291027 346.67393 99.662134 C 346.95896 100.03324 347.08262 100.31186 347.09199 100.68533 C 347.11559 101.62403 346.92017 101.6612 346.4512 101.91626 C 346.21672 102.04378 345.90272 102.16186 345.54687 102.32605 C 345.19103 102.49024 344.75274 102.70736 344.4198 103.1875 C 343.43631 104.60581 343.738 106.33651 343.82604 108.25592 C 343.87804 109.38862 344.12971 110.16168 344.09579 110.72451 C 344.06189 111.28734 343.88564 111.82872 342.75376 112.85358 C 341.97008 113.56313 340.05821 113.59292 337.96077 113.36311 C 336.91203 113.24821 335.84831 113.10045 334.8576 113.0763 C 333.8669 113.0522 332.90124 113.10532 332.08206 113.71089 C 330.73124 114.70951 329.93651 116.48094 329.29876 118.04086 C 328.66101 119.60077 328.27919 120.96884 328.27919 120.96884 A 1 1 0 0 0 328.97475 122.20133 A 1 1 0 0 0 330.20517 121.50576 C 330.20517 121.50576 330.55985 120.23817 331.14826 118.79895 C 331.73666 117.35972 332.66017 115.77059 333.27165 115.31854 C 333.43361 115.19881 333.98907 115.05621 334.8085 115.07618 C 335.62797 115.09618 336.66231 115.23308 337.74424 115.35162 C 339.90809 115.58871 342.38934 115.8831 344.09786 114.33617 C 345.45813 113.10454 346.02696 111.92378 346.09205 110.84388 C 346.15715 109.76398 345.86141 108.97155 345.82437 108.16394 C 345.73437 106.20277 345.76822 104.75044 346.0626 104.32593 C 346.0491 104.34533 346.13627 104.25697 346.38454 104.14248 C 346.63277 104.02794 347.00223 103.8946 347.40825 103.67378 C 348.2203 103.23214 349.13066 102.18076 349.09187 100.63468 C 349.07007 99.76576 348.70462 99.024194 348.25988 98.445154 C 347.81513 97.866112 347.29561 97.404958 346.80881 96.939303 C 345.83516 96.007989 345.01151 95.145573 344.80273 93.599455 C 344.32719 90.077771 345.1738 87.838602 342.01943 82.38877 C 340.243 79.319557 336.19559 77.191654 331.58183 76.099748 C 329.5633 75.622038 327.42654 75.351577 325.30211 75.344238 z M 322.84179 82.716915 C 321.30853 82.716915 320.14044 83.391465 319.36914 84.070321 C 318.98349 84.409747 318.68392 84.750836 318.45705 85.015483 C 318.2869 85.213966 318.12803 85.37782 318.08549 85.427344 C 318.04393 85.443832 317.89363 85.521356 317.6974 85.60356 C 317.43019 85.715504 317.07154 85.871118 316.70108 86.127043 C 315.96017 86.63889 315.23857 87.642231 315.14821 89.099471 C 315.03264 90.963108 316.62143 92.429501 318.41622 92.4295 L 325.61992 92.4295 C 325.17604 93.157081 324.49751 94.358121 324.49751 94.917721 C 324.49751 95.745578 325.16878 96.416844 325.99664 96.416854 C 326.8245 96.416844 327.49526 95.745578 327.49526 94.917721 C 327.49526 94.358121 326.81672 93.157081 326.37284 92.4295 L 329.44914 92.4295 C 331.24266 92.4295 332.71664 90.953715 332.71664 89.159932 C 332.71664 88.34054 332.49187 87.49629 331.95907 86.791085 C 331.42628 86.085879 330.54843 85.560166 329.49823 85.484188 C 328.73368 85.428878 328.15108 85.360936 327.77327 85.281099 C 327.50766 85.224967 327.36437 85.150708 327.32731 85.137439 C 327.28216 85.076803 327.164 84.931914 327.0312 84.767436 C 326.83281 84.521727 326.55795 84.210202 326.19353 83.904439 C 325.46468 83.292916 324.33776 82.716915 322.84179 82.716915 z M 322.84179 84.716793 C 323.85245 84.716793 324.45125 85.054171 324.90833 85.437679 C 325.13687 85.629433 325.32177 85.83427 325.47471 86.02369 C 325.62765 86.213111 325.69034 86.345582 325.93566 86.585929 C 326.35558 86.997351 326.82113 87.122369 327.36141 87.236536 C 327.90169 87.350703 328.54605 87.422028 329.35354 87.480448 C 329.87537 87.518198 330.14317 87.704805 330.3633 87.996179 C 330.58344 88.287553 330.71676 88.72231 330.71676 89.159932 C 330.71676 89.880186 330.16968 90.429623 329.44914 90.429622 L 318.41622 90.429622 C 317.69697 90.429622 317.10444 89.868035 317.14447 89.222461 C 317.20337 88.273102 317.4802 88.018537 317.83796 87.771387 C 318.01684 87.647811 318.23303 87.548921 318.47048 87.449443 C 318.70794 87.349963 318.9565 87.286261 319.29317 87.03138 C 319.62669 86.778888 319.764 86.564124 319.97478 86.318245 C 320.18556 86.07237 320.41869 85.810361 320.68947 85.572038 C 321.23103 85.095392 321.86841 84.716793 322.84179 84.716793 z M 320.70497 95.006087 C 320.70497 95.006087 319.20584 97.264871 319.20584 98.092721 C 319.20584 98.920579 319.87711 99.591844 320.70497 99.591854 C 321.53283 99.591844 322.20359 98.920579 322.20359 98.092721 C 322.20359 97.264871 320.70497 95.006087 320.70497 95.006087 z M 337.63831 98.710254 C 337.63831 98.710254 336.13917 100.96904 336.13917 101.79689 C 336.13917 102.62475 336.81045 103.29601 337.63831 103.29602 C 338.46615 103.29601 339.13692 102.62475 339.13692 101.79689 C 339.13692 100.96904 337.63831 98.710254 337.63831 98.710254 z " /><path
       id="path48"
       style="color:#000000;fill:#ffffff;stroke-linecap:round;stroke-linejoin:round;-inkscape-stroke:none;paint-order:fill markers stroke"
       d="M 473.74834 76.337976 C 473.26928 76.425736 472.79157 76.517652 472.32362 76.628398 C 467.70987 77.720302 463.66248 79.848213 461.88602 82.917419 C 458.73165 88.367249 459.57828 90.606425 459.10273 94.128105 C 458.89396 95.674221 458.07031 96.536639 457.09665 97.467952 C 456.60983 97.93361 456.08825 98.394762 455.64351 98.973804 C 455.19877 99.552844 454.83537 100.29647 454.81358 101.1654 C 454.77478 102.71148 455.68515 103.76079 456.4972 104.20243 C 456.90322 104.42322 457.27268 104.5566 457.52091 104.67113 C 457.76915 104.78567 457.85426 104.87609 457.84079 104.85665 C 458.13514 105.28115 458.17104 106.73349 458.08108 108.69466 C 458.04408 109.50227 457.74884 110.29263 457.81392 111.37253 C 457.87902 112.45243 458.44732 113.6332 459.80759 114.86482 C 461.51611 116.41176 463.99736 116.11735 466.16121 115.88027 C 467.24313 115.76172 468.27749 115.6248 469.09695 115.60483 C 469.91642 115.58483 470.47186 115.72747 470.63381 115.84719 C 471.24526 116.29924 472.16878 117.88838 472.75719 119.3276 C 473.13181 120.24391 473.36386 120.9493 473.51787 121.44427 A 30 30 0 0 0 475.12604 119.95237 C 474.97819 119.53023 474.81151 119.07256 474.60669 118.57157 C 473.96894 117.01169 473.17422 115.23815 471.8234 114.23954 C 471.00419 113.63393 470.03852 113.58081 469.04786 113.60495 C 468.05715 113.62915 466.99339 113.77685 465.94469 113.89176 C 463.84722 114.12157 461.9333 114.09178 461.14963 113.38223 C 460.01772 112.35737 459.84358 111.81598 459.80966 111.25316 C 459.78065 110.77149 459.95449 110.12162 460.03962 109.23881 C 462.48006 109.77246 464.22296 108.88156 465.54471 108.12673 A 1 1 0 0 0 465.91781 106.76351 A 1 1 0 0 0 465.31268 106.2948 A 1 1 0 0 0 464.55252 106.39041 C 463.16543 107.18253 462.23728 107.80531 460.16933 107.21309 C 460.23353 105.91754 460.19195 104.73471 459.48565 103.71615 C 459.1527 103.23602 458.71444 103.01888 458.35859 102.8547 C 458.00275 102.69051 457.68873 102.57399 457.45425 102.44646 C 456.98528 102.19141 456.78991 102.15268 456.81346 101.21398 C 456.82246 100.84052 456.94649 100.56396 457.23152 100.19285 C 457.51656 99.821752 457.96698 99.403583 458.47951 98.913342 C 459.50457 97.932862 460.79111 96.572431 461.08503 94.395789 C 461.61488 90.471943 460.64837 89.047836 463.61666 83.919425 C 464.90154 81.699516 468.50652 79.588018 472.78458 78.575566 C 473.68767 78.361837 474.62111 78.205913 475.5627 78.089807 A 30 30 0 0 0 473.74834 76.337976 z M 433.97713 76.359163 A 30 30 0 0 0 432.22426 78.112028 C 433.11 78.226942 433.98838 78.374235 434.83909 78.575566 C 439.11716 79.588018 442.72005 81.699516 444.00494 83.919425 C 446.97327 89.047836 446.00827 90.471943 446.53812 94.395789 C 446.83204 96.572431 448.11652 97.932862 449.14158 98.913342 C 449.65411 99.403583 450.10659 99.821752 450.39163 100.19285 C 450.67666 100.56396 450.80032 100.84052 450.80969 101.21398 C 450.83329 102.15268 450.63787 102.19141 450.1689 102.44646 C 449.93442 102.57399 449.61886 102.69051 449.26302 102.8547 C 448.90718 103.01888 448.46889 103.23602 448.13595 103.71615 C 447.42379 104.74318 447.38878 105.93687 447.45589 107.24513 C 445.46829 107.78176 444.54845 107.16766 443.18742 106.39041 A 1 1 0 0 0 441.82213 106.76351 A 1 1 0 0 0 442.19523 108.12673 C 443.49588 108.86952 445.2062 109.74433 447.58612 109.26361 C 447.67174 110.13373 447.8407 110.77594 447.81194 111.25316 C 447.77804 111.81598 447.60389 112.35737 446.47197 113.38223 C 445.6883 114.09178 443.77645 114.12157 441.67898 113.89176 C 440.63024 113.77685 439.56393 113.6291 438.57323 113.60495 C 437.58252 113.58085 436.61737 113.63395 435.79821 114.23954 C 434.44738 115.23815 433.65266 117.01169 433.01491 118.57157 C 432.83674 119.00736 432.68426 119.41636 432.54879 119.79631 A 30 30 0 0 0 434.12699 121.37399 C 434.28634 120.86922 434.51724 120.18184 434.86648 119.3276 C 435.45488 117.88838 436.3758 116.29924 436.98728 115.84719 C 437.14923 115.72747 437.70519 115.58486 438.52465 115.60483 C 439.34411 115.62483 440.37846 115.76172 441.46039 115.88027 C 443.62424 116.11735 446.10498 116.41176 447.81349 114.86482 C 449.17377 113.6332 449.74261 112.45243 449.80769 111.37253 C 449.87279 110.29263 449.57911 109.50227 449.54207 108.69466 C 449.45207 106.73349 449.48587 105.28115 449.7803 104.85665 C 449.7668 104.87605 449.8525 104.78565 450.10069 104.67113 C 450.34893 104.5566 450.71837 104.42322 451.1244 104.20243 C 451.93645 103.76079 452.84681 102.71148 452.80802 101.1654 C 452.78622 100.29647 452.42233 99.552844 451.97758 98.973804 C 451.53284 98.394762 451.01127 97.93361 450.52444 97.467952 C 449.55078 96.536639 448.72766 95.674221 448.51888 94.128105 C 448.04333 90.606425 448.88994 88.367249 445.73558 82.917419 C 443.95916 79.848213 439.91383 77.720302 435.30004 76.628398 C 434.86572 76.525601 434.42128 76.442195 433.97713 76.359163 z M 440.99996 93.559147 C 439.27482 93.545528 437.95611 94.233057 436.90408 94.834005 A 1 1 0 0 0 436.53149 96.197229 A 1 1 0 0 0 437.89627 96.570333 C 439.3362 95.747814 440.2816 95.10774 442.52131 95.820508 A 1 1 0 0 0 443.77756 95.169902 A 1 1 0 0 0 443.12696 93.914164 C 442.42152 93.689665 441.77057 93.582784 441.1679 93.562248 C 441.1114 93.560322 441.0556 93.559586 440.99996 93.559147 z M 465.68165 93.559147 C 465.626 93.559586 465.57021 93.560322 465.5137 93.562248 C 464.91105 93.582788 464.26009 93.689665 463.55465 93.914164 A 1 1 0 0 0 462.90404 95.169902 A 1 1 0 0 0 464.16237 95.820508 C 466.40207 95.10774 467.34696 95.747815 468.78689 96.570333 A 1 1 0 0 0 470.15063 96.197229 A 1 1 0 0 0 469.77908 94.834005 C 468.72704 94.233057 467.4069 93.545529 465.68165 93.559147 z " /><path
       id="path52"
       style="fill:#59468d;fill-opacity:1;stroke-width:18;stroke-linecap:round;paint-order:fill markers stroke"
       d="M 557.94613,98.791673 A 30,30 0 0 1 527.94611,128.79169 30,30 0 0 1 497.94609,98.791673 30,30 0 0 1 527.94611,68.79167 30,30 0 0 1 557.94613,98.791673 Z" /><path
       id="path79"
       style="fill:#59468d;fill-opacity:1;stroke-width:18;stroke-linecap:round;paint-order:fill markers stroke"
       d="M 561.44613,98.791673 A 30,30 0 0 0 591.44615,128.79169 30,30 0 0 0 621.44617,98.791673 30,30 0 0 0 591.44615,68.79167 30,30 0 0 0 561.44613,98.791673 Z" /><g
       id="g82"
       transform="translate(122.23752,76.728847)"><path
         id="path80"
         style="color:#000000;fill:#ffffff;stroke-linecap:round;stroke-linejoin:round;-inkscape-stroke:none;paint-order:fill markers stroke"
         d="m 460.97649,5.5431345 c -3.23742,2e-7 -6.47521,1.2310711 -8.9395,3.6953816 -4.9067,4.9066469 -4.9266,12.8773869 -0.0636,17.8113159 0.017,0.01784 0.0331,0.03652 0.0501,0.05426 a 1.0001,1.0001 0 0 0 0.008,0.0072 c 0.002,0.0019 0.004,0.0038 0.006,0.0057 l 2.97811,2.977596 2.97605,2.977596 a 1.0001,1.0001 0 0 0 0.004,0.0026 l 10.50737,10.507369 a 1.0001,1.0001 0 0 0 1.41387,0 l 10.50944,-10.509436 10e-4,-10e-4 1.44022,-1.440739 4.51394,-4.513937 a 1.0001,1.0001 0 0 0 0.001,0 c 0.12735,-0.127856 0.25104,-0.259488 0.37259,-0.39274 0.0565,-0.06154 0.11184,-0.123652 0.16691,-0.186036 0.0442,-0.05046 0.0873,-0.101801 0.13074,-0.152962 4.24173,-4.961005 4.01931,-12.453144 -0.67282,-17.1452066 C 481.67049,4.531448 474.16966,4.374 469.20907,8.6623239 466.84454,6.6179418 463.92523,5.5431344 460.97649,5.5431345 Z m 0,1.9859253 c 2.72141,-2e-7 5.4435,1.0432322 7.52564,3.1253902 a 1.0001,1.0001 0 0 0 1.41387,0 c 4.16433,-4.1640315 10.88454,-4.1641979 15.04869,0 3.60306,3.603025 4.08197,9.117032 1.45004,13.235885 l -6.48797,-3.745508 c -0.87153,-0.503179 -1.82463,-0.760029 -2.76676,-0.785482 -2.07309,-0.05599 -4.10885,1.007243 -5.2157,2.92437 -1.60998,2.788573 -0.64858,6.370965 2.13992,7.980908 l 4.00647,2.313037 -8.88162,8.883179 -8.88267,-8.882662 4.00699,-2.313037 c 2.78851,-1.609943 3.74888,-5.194396 2.13889,-7.982976 -1.10685,-1.917125 -3.14157,-2.978822 -5.21467,-2.922819 -0.94213,0.02544 -1.89625,0.280752 -2.76779,0.783932 l -6.48849,3.748092 c -2.63275,-4.118936 -2.15338,-9.633518 1.45004,-13.236919 2.08215,-2.0821582 4.80373,-3.1253901 7.52512,-3.1253902 z m 0.33487,13.8291302 c 1.36065,-0.03676 2.6914,0.645906 3.42924,1.923913 1.07324,1.858904 0.45182,4.177565 -1.40714,5.250843 l -4.47053,2.581237 -5.39812,-5.397086 c -9.4e-4,-9.71e-4 -0.002,-0.0021 -0.003,-0.0031 -0.0721,-0.07567 -0.13087,-0.162827 -0.20102,-0.240295 l 6.22856,-3.59823 c 0.5808,-0.335325 1.20295,-0.500577 1.8216,-0.517281 z m 15.7949,0 c 0.61868,0.01672 1.23976,0.183507 1.82056,0.518831 v -5.17e-4 l 6.23476,3.599781 c -0.0592,0.06299 -0.11095,0.132473 -0.16898,0.19637 -0.01,0.0099 -0.018,0.02063 -0.0279,0.03049 l -4.81107,4.811593 -0.59893,0.59893 -4.47053,-2.581238 c -1.85897,-1.073279 -2.48142,-3.389871 -1.40818,-5.248775 0.73786,-1.27801 2.06964,-1.962207 3.43028,-1.925464 z" /></g><path
       id="path83"
       style="fill:#59468d;fill-opacity:1;stroke-width:18;stroke-linecap:round;paint-order:fill markers stroke"
       d="M 359.8335,98.791673 A 30,30 0 0 0 389.83352,128.79169 30,30 0 0 0 419.83354,98.791673 30,30 0 0 0 389.83352,68.79167 30,30 0 0 0 359.8335,98.791673 Z" /><path
       id="path84"
       style="color:#000000;fill:#ffffff;stroke-linecap:round;stroke-linejoin:round;-inkscape-stroke:none;paint-order:fill markers stroke"
       d="m 382.74137,76.455281 c -0.4117,0.0035 -0.82887,0.05831 -1.24386,0.169509 -2.65587,0.711638 -4.24733,3.467774 -3.53569,6.123654 0.71164,2.655881 3.46777,4.247339 6.12365,3.535698 1.78591,-0.478533 3.08958,-1.882062 3.53622,-3.557407 l 10.55078,0.689367 c -0.0505,0.565388 -0.005,1.148513 0.14986,1.726513 0.1656,0.618009 0.44307,1.177375 0.80305,1.664493 l -4.93562,5.430677 c -1.55822,-0.908718 -3.46298,-1.222509 -5.33506,-0.720887 -3.53809,0.948026 -5.72072,4.47528 -5.07256,8.018633 l -5.78829,2.771929 c -1.20694,-1.4874 -3.22194,-2.21895 -5.18314,-1.69345 -2.65588,0.71165 -4.24683,3.46829 -3.53519,6.12419 0.71165,2.65589 3.46778,4.24682 6.12366,3.53517 2.65589,-0.71164 4.24683,-3.46776 3.53518,-6.12365 -0.006,-0.0227 -0.0133,-0.0447 -0.0196,-0.0672 l 5.50974,-2.63653 c 0.93522,1.84087 2.63469,3.14944 4.58577,3.62974 l -0.39843,5.60173 c -0.1781,0.0274 -0.35649,0.064 -0.53433,0.11163 -2.65589,0.71165 -4.24683,3.46776 -3.53518,6.12366 0.71164,2.65588 3.46776,4.24683 6.12365,3.53519 2.65588,-0.71164 4.24735,-3.46779 3.53571,-6.12366 -0.48193,-1.79857 -1.90201,-3.10747 -3.59307,-3.54501 l 0.39326,-5.51027 c 0.48983,-0.0232 0.98421,-0.097 1.47639,-0.22892 1.30808,-0.3505 2.42949,-1.05472 3.29282,-1.98075 l 5.00642,3.85609 c -0.56941,1.07741 -0.7522,2.36215 -0.41393,3.62458 0.71164,2.6559 3.46777,4.24736 6.12365,3.53572 2.65588,-0.71165 4.24735,-3.46778 3.53571,-6.12366 -0.71164,-2.6559 -3.46778,-4.24735 -6.12366,-3.53572 -0.70026,0.18764 -1.32564,0.51827 -1.85518,0.95085 l -5.12889,-3.95066 c 0.74528,-1.481431 0.97367,-3.228967 0.51263,-4.949571 -0.30981,-1.156233 -0.89534,-2.167743 -1.66656,-2.983274 l 4.84932,-5.337662 c 1.11827,0.661012 2.48953,0.892378 3.83542,0.531748 2.65588,-0.711642 4.24734,-3.467764 3.5357,-6.123655 -0.71164,-2.655881 -3.46829,-4.246828 -6.12417,-3.535187 -1.36685,0.366247 -2.45047,1.274443 -3.08457,2.431382 l -11.03502,-0.718307 c -0.0278,-0.190629 -0.0658,-0.381145 -0.11678,-0.571539 -0.60045,-2.2409 -2.65664,-3.723942 -4.87981,-3.705204 z m 0.17414,1.998329 c 1.28054,0.04743 2.42309,0.914542 2.774,2.224153 0.43189,1.611841 -0.50948,3.242312 -2.12132,3.674204 -1.61183,0.431889 -3.2423,-0.509481 -3.67419,-2.121322 -0.43189,-1.61184 0.50949,-3.242304 2.12132,-3.674193 0.30222,-0.08098 0.60469,-0.113784 0.90019,-0.102842 z m 20.36052,2.39417 c 1.28054,0.04744 2.42257,0.914546 2.77348,2.224158 0.43189,1.611841 -0.50948,3.242302 -2.12132,3.674193 -1.61184,0.431892 -3.24231,-0.50948 -3.6742,-2.121321 -0.43188,-1.611821 0.50948,-3.242302 2.12132,-3.674193 0.30222,-0.08098 0.60522,-0.113778 0.90072,-0.102837 z m -12.65245,12.428186 c 2.23058,-0.02568 4.26695,1.448096 4.87257,3.708304 0.71777,2.678763 -0.85694,5.4064 -3.53571,6.12417 -0.27188,0.0729 -0.54421,0.12041 -0.81494,0.14727 l 0.14367,-2.01021 a 1,1 0 0 0 -0.92811,-1.06867 1,1 0 0 0 -1.06815,0.92812 l -0.13849,1.94406 c -1.57021,-0.49635 -2.85736,-1.75851 -3.31763,-3.476274 -0.71778,-2.678763 0.85641,-5.405878 3.53519,-6.123653 0.41855,-0.112151 0.83852,-0.168363 1.2516,-0.173117 z m -16.39435,9.167404 c 1.28053,0.0474 2.42256,0.91452 2.77347,2.22415 0.43189,1.61184 -0.50948,3.2423 -2.12131,3.67419 -1.61183,0.43189 -3.24231,-0.50948 -3.6742,-2.12131 -0.43189,-1.61184 0.50948,-3.24232 2.12132,-3.6742 0.30221,-0.081 0.60521,-0.11378 0.90072,-0.10283 z m 31.08802,3.80183 c 1.28054,0.0474 2.42308,0.91453 2.77399,2.22416 0.43189,1.61184 -0.50949,3.2423 -2.12132,3.67419 -1.61183,0.43189 -3.24282,-0.50947 -3.67471,-2.12132 -0.43189,-1.61184 0.50948,-3.2423 2.12132,-3.67419 0.30222,-0.081 0.60521,-0.11379 0.90072,-0.10284 z m -15.82125,6.37274 c 1.28053,0.0474 2.42256,0.91454 2.77347,2.22415 0.43189,1.61183 -0.50948,3.24232 -2.12132,3.67421 -1.61184,0.43189 -3.2423,-0.50949 -3.67419,-2.12132 -0.43189,-1.61185 0.50947,-3.24231 2.12131,-3.6742 0.30222,-0.081 0.60521,-0.11379 0.90073,-0.10284 z" /><path
       id="path55"
       style="color:#000000;fill:#ffffff;stroke-linecap:round;stroke-linejoin:round;-inkscape-stroke:none;paint-order:fill markers stroke"
       d="M 527.14715 75.831547 C 525.02234 75.838847 522.88389 76.10883 520.86536 76.58654 C 516.25164 77.678442 512.20622 79.806877 510.42983 82.876078 C 507.27546 88.325893 508.12207 90.565092 507.64653 94.086764 C 507.43775 95.632869 506.6141 96.493237 505.64045 97.424544 C 505.15362 97.890201 504.63206 98.351355 504.18731 98.930396 C 503.74257 99.509429 503.37919 100.25306 503.35739 101.12199 C 503.31859 102.66808 504.22896 103.71944 505.04101 104.16108 C 505.44703 104.3819 505.81596 104.51526 506.0642 104.62979 C 506.31241 104.74429 506.39809 104.83264 506.38459 104.81324 C 506.67892 105.23774 506.71489 106.69007 506.62489 108.65125 C 506.58789 109.45886 506.29211 110.25129 506.35721 111.33119 C 506.42231 112.4111 506.99113 113.59135 508.3514 114.82297 C 510.05992 116.36983 512.54117 116.07395 514.70502 115.83686 C 515.78696 115.71832 516.82129 115.58349 517.64076 115.56349 C 518.46015 115.54349 519.01565 115.68561 519.17761 115.80533 C 519.78909 116.25738 520.71052 117.84704 521.29893 119.28626 C 521.88734 120.72549 522.24202 121.99307 522.24202 121.99307 C 522.24232 121.99414 522.24276 121.9951 522.24306 121.99617 A 1 1 0 0 0 523.22284 122.84005 L 532.68376 122.84005 A 1 1 0 0 0 533.67285 121.92021 C 533.70293 121.81399 534.03163 120.66112 534.59373 119.28626 C 535.18207 117.84704 536.10356 116.25738 536.71504 115.80533 C 536.877 115.68561 537.43244 115.54351 538.2519 115.56349 C 539.07137 115.58349 540.10571 115.71832 541.18764 115.83686 C 543.35149 116.07395 545.83274 116.36983 547.54126 114.82297 C 548.90146 113.59135 549.47036 112.4111 549.53545 111.33119 C 549.60055 110.25129 549.30481 109.45886 549.26777 108.65125 C 549.17777 106.69007 549.21377 105.23774 549.50806 104.81324 C 549.49456 104.83264 549.58026 104.74434 549.82845 104.62979 C 550.07669 104.51526 550.44563 104.3819 550.85165 104.16108 C 551.6637 103.71944 552.57406 102.66808 552.53527 101.12199 C 552.51347 100.25306 552.15008 99.509429 551.70534 98.930396 C 551.26059 98.351358 550.73903 97.890201 550.2522 97.424544 C 549.27855 96.493237 548.4549 95.632869 548.24612 94.086764 C 547.77058 90.565092 548.6172 88.325893 545.46283 82.876078 C 543.68637 79.806877 539.64108 77.678442 535.02729 76.58654 C 532.75547 76.048884 530.33168 75.775928 527.94659 75.842916 C 527.68048 75.835416 527.41396 75.830626 527.14715 75.831547 z M 526.9451 77.738924 L 526.9451 120.83965 L 523.9799 120.83965 C 523.81607 120.31053 523.56458 119.54093 523.1505 118.52817 C 522.51275 116.96826 521.71802 115.19475 520.3672 114.19613 C 519.54799 113.59052 518.58237 113.53941 517.59166 113.56361 C 516.60095 113.58771 515.53671 113.73345 514.48798 113.84835 C 512.39051 114.07816 510.47711 114.05038 509.69344 113.34089 C 508.56153 112.31603 508.38737 111.77258 508.35347 111.20975 C 508.31957 110.64692 508.56915 109.87593 508.62115 108.74323 C 508.70915 106.82386 509.01289 105.09313 508.02946 103.67481 C 507.69652 103.19467 507.25823 102.97755 506.90239 102.81336 C 506.54654 102.64917 506.23047 102.53058 505.99599 102.40305 C 505.52702 102.148 505.3316 102.11128 505.3552 101.17264 C 505.3642 100.79918 505.48823 100.52055 505.77326 100.14944 C 506.05829 99.778367 506.51079 99.360174 507.02332 98.869934 C 508.04831 97.889453 509.33284 96.531083 509.62677 94.354447 C 510.15662 90.430616 509.19169 89.005958 512.15995 83.877568 C 513.44483 81.657661 517.04826 79.544605 521.32632 78.532157 C 524.01599 77.895618 525.88705 77.758414 526.9451 77.738924 z M 528.94549 77.745642 C 529.99253 77.761454 531.83371 77.885454 534.56634 78.532157 C 538.84433 79.544605 542.44782 81.657661 543.7327 83.877568 C 546.70103 89.005958 545.73603 90.430616 546.26588 94.354447 C 546.55981 96.531083 547.84428 97.889456 548.86934 98.869934 C 549.38187 99.360174 549.83436 99.778364 550.11939 100.14944 C 550.40443 100.52055 550.5281 100.79918 550.53746 101.17264 C 550.56106 102.11128 550.36564 102.148 549.89667 102.40305 C 549.66219 102.53058 549.34611 102.64917 548.99026 102.81336 C 548.63442 102.97755 548.19614 103.19467 547.8632 103.67481 C 547.45914 104.25752 547.27857 104.89537 547.20484 105.57495 C 546.32087 105.80903 545.79637 105.77169 545.33416 105.64058 C 544.80482 105.49043 544.28137 105.14252 543.51566 104.70524 A 1 1 0 0 0 542.15244 105.07834 A 1 1 0 0 0 542.52347 106.44156 C 543.20171 106.82889 543.86197 107.30214 544.7869 107.56449 C 545.47546 107.75981 546.26984 107.79668 547.20484 107.6203 C 547.2277 107.98839 547.25388 108.35903 547.2715 108.74323 C 547.3235 109.87593 547.57311 110.64692 547.53919 111.20975 C 547.50529 111.77258 547.33113 112.31603 546.19922 113.34089 C 545.41555 114.05038 543.50163 114.07816 541.40416 113.84835 C 540.35542 113.73345 539.2917 113.58775 538.30099 113.56361 C 537.31028 113.53941 536.34466 113.59051 535.52545 114.19613 C 534.17463 115.19475 533.37991 116.96826 532.74216 118.52817 C 532.32806 119.54097 532.07607 120.31054 531.91224 120.83965 L 528.94549 120.83965 L 528.94549 77.745642 z M 516.74314 90.084941 A 1 1 0 0 0 516.30285 90.150053 L 511.1874 92.138562 A 1 1 0 0 0 510.61741 93.433573 A 1 1 0 0 0 511.91191 94.003564 L 517.02736 92.013505 A 1 1 0 0 0 517.59786 90.718494 A 1 1 0 0 0 516.74314 90.084941 z M 540.67191 90.184159 C 539.70117 90.180858 538.82802 90.385307 538.07207 90.584135 A 1 1 0 0 0 537.35945 91.804732 A 1 1 0 0 0 538.58211 92.51735 C 540.18586 92.095541 541.26544 91.722029 543.24436 92.99019 A 1 1 0 0 0 544.62515 92.687366 A 1 1 0 0 0 544.32233 91.306571 C 543.07573 90.507712 541.91653 90.221336 540.86724 90.18726 C 540.80166 90.18513 540.73662 90.184379 540.67191 90.184159 z M 514.66833 93.944653 A 1.8627785 1.7385932 0 0 0 512.80539 95.683049 A 1.8627785 1.7385932 0 0 0 514.66833 97.42196 A 1.8627785 1.7385932 0 0 0 516.53075 95.683049 A 1.8627785 1.7385932 0 0 0 514.66833 93.944653 z M 541.12666 93.944653 A 1.8627785 1.7385932 0 0 0 539.26372 95.683049 A 1.8627785 1.7385932 0 0 0 541.12666 97.42196 A 1.8627785 1.7385932 0 0 0 542.98908 95.683049 A 1.8627785 1.7385932 0 0 0 541.12666 93.944653 z M 513.52886 103.5358 C 512.74744 103.55513 511.69194 104.08279 510.02003 105.36308 L 510.06086 108.00219 C 515.25571 109.15487 516.38368 105.64872 514.85695 104.13215 C 514.46962 103.74739 514.06352 103.52257 513.52886 103.5358 z " /><g
       id="g134"
       transform="translate(0,1.058334)" /></g></svg>
