<?xml version="1.0" encoding="UTF-8" standalone="no"?>
<!-- Created with Inkscape (http://www.inkscape.org/) -->

<svg
   width="60.000038mm"
   height="60.000019mm"
   viewBox="0 0 60.000038 60.000019"
   version="1.1"
   id="svg1"
   xml:space="preserve"
   inkscape:version="1.3.2 (091e20e, 2023-11-25, custom)"
   sodipodi:docname="emotions.svg"
   xmlns:inkscape="http://www.inkscape.org/namespaces/inkscape"
   xmlns:sodipodi="http://sodipodi.sourceforge.net/DTD/sodipodi-0.dtd"
   xmlns="http://www.w3.org/2000/svg"
   xmlns:svg="http://www.w3.org/2000/svg"><sodipodi:namedview
     id="namedview1"
     pagecolor="#ffffff"
     bordercolor="#000000"
     borderopacity="0.25"
     inkscape:showpageshadow="2"
     inkscape:pageopacity="0.0"
     inkscape:pagecheckerboard="0"
     inkscape:deskcolor="#d1d1d1"
     inkscape:document-units="mm"
     inkscape:zoom="0.31771923"
     inkscape:cx="-254.94207"
     inkscape:cy="398.15027"
     inkscape:window-width="1366"
     inkscape:window-height="745"
     inkscape:window-x="-8"
     inkscape:window-y="-8"
     inkscape:window-maximized="1"
     inkscape:current-layer="layer1"
     showguides="false" /><defs
     id="defs1" /><g
     inkscape:label="Layer 1"
     inkscape:groupmode="layer"
     id="layer1"
     transform="translate(-497.94609,-68.79167)"><path
       id="path52"
       style="fill:#59468d;fill-opacity:1;stroke-width:18;stroke-linecap:round;paint-order:fill markers stroke"
       d="M 557.94613,98.791673 A 30,30 0 0 1 527.94611,128.79169 30,30 0 0 1 497.94609,98.791673 30,30 0 0 1 527.94611,68.79167 30,30 0 0 1 557.94613,98.791673 Z" /><path
       id="path55"
       style="color:#000000;fill:#ffffff;stroke-linecap:round;stroke-linejoin:round;-inkscape-stroke:none;paint-order:fill markers stroke"
       d="m 527.14715,75.831547 c -2.12481,0.0073 -4.26326,0.277283 -6.28179,0.754993 -4.61372,1.091902 -8.65914,3.220337 -10.43553,6.289538 -3.15437,5.449815 -2.30776,7.689014 -2.7833,11.210686 -0.20878,1.546105 -1.03243,2.406473 -2.00608,3.33778 -0.48683,0.465657 -1.00839,0.926811 -1.45314,1.505852 -0.44474,0.579033 -0.80812,1.322664 -0.82992,2.191594 -0.0388,1.54609 0.87157,2.59745 1.68362,3.03909 0.40602,0.22082 0.77495,0.35418 1.02319,0.46871 0.24821,0.1145 0.33389,0.20285 0.32039,0.18345 0.29433,0.4245 0.3303,1.87683 0.2403,3.83801 -0.037,0.80761 -0.33278,1.60004 -0.26768,2.67994 0.0651,1.07991 0.63392,2.26016 1.99419,3.49178 1.70852,1.54686 4.18977,1.25098 6.35362,1.01389 1.08194,-0.11854 2.11627,-0.25337 2.93574,-0.27337 0.81939,-0.02 1.37489,0.12212 1.53685,0.24184 0.61148,0.45205 1.53291,2.04171 2.12132,3.48093 0.58841,1.43923 0.94309,2.70681 0.94309,2.70681 3e-4,10e-4 7.4e-4,0.002 10e-4,0.003 a 1,1 0 0 0 0.97978,0.84388 h 9.46092 a 1,1 0 0 0 0.98909,-0.91984 c 0.0301,-0.10622 0.35878,-1.25909 0.92088,-2.63395 0.58834,-1.43922 1.50983,-3.02888 2.12131,-3.48093 0.16196,-0.11972 0.7174,-0.26182 1.53686,-0.24184 0.81947,0.02 1.85381,0.15483 2.93574,0.27337 2.16385,0.23709 4.6451,0.53297 6.35362,-1.01389 1.3602,-1.23162 1.9291,-2.41187 1.99419,-3.49178 0.0651,-1.0799 -0.23064,-1.87233 -0.26768,-2.67994 -0.09,-1.96118 -0.054,-3.41351 0.24029,-3.83801 -0.0135,0.0194 0.0722,-0.0689 0.32039,-0.18345 0.24824,-0.11453 0.61718,-0.24789 1.0232,-0.46871 0.81205,-0.44164 1.72241,-1.493 1.68362,-3.03909 -0.0218,-0.86893 -0.38519,-1.612561 -0.82993,-2.191594 -0.44475,-0.579038 -0.96631,-1.040195 -1.45314,-1.505852 -0.97365,-0.931307 -1.7973,-1.791675 -2.00608,-3.33778 -0.47554,-3.521672 0.37108,-5.760871 -2.78329,-11.210686 -1.77646,-3.069201 -5.82175,-5.197636 -10.43554,-6.289538 -2.27182,-0.537656 -4.69561,-0.810612 -7.0807,-0.743624 -0.26611,-0.0075 -0.53263,-0.01229 -0.79944,-0.01137 z m -0.20205,1.907377 v 43.100726 h -2.9652 c -0.16383,-0.52912 -0.41532,-1.29872 -0.8294,-2.31148 -0.63775,-1.55991 -1.43248,-3.33342 -2.7833,-4.33204 -0.81921,-0.60561 -1.78483,-0.65672 -2.77554,-0.63252 -0.99071,0.0241 -2.05495,0.16984 -3.10368,0.28474 -2.09747,0.22981 -4.01087,0.20203 -4.79454,-0.50746 -1.13191,-1.02486 -1.30607,-1.56831 -1.33997,-2.13114 -0.0339,-0.56283 0.21568,-1.33382 0.26768,-2.46652 0.088,-1.91937 0.39174,-3.6501 -0.59169,-5.06842 -0.33294,-0.48014 -0.77123,-0.69726 -1.12707,-0.86145 -0.35585,-0.16419 -0.67192,-0.28278 -0.9064,-0.41031 -0.46897,-0.25505 -0.66439,-0.29177 -0.64079,-1.23041 0.009,-0.37346 0.13303,-0.65209 0.41806,-1.0232 0.28503,-0.371073 0.73753,-0.789266 1.25006,-1.279506 1.02499,-0.980481 2.30952,-2.338851 2.60345,-4.515487 0.52985,-3.923831 -0.43508,-5.348489 2.53318,-10.476879 1.28488,-2.219907 4.88831,-4.332963 9.16637,-5.345411 2.68967,-0.636539 4.56073,-0.773743 5.61878,-0.793233 z m 2.00039,0.0067 c 1.04704,0.01581 2.88822,0.139812 5.62085,0.786515 4.27799,1.012448 7.88148,3.125504 9.16636,5.345411 2.96833,5.12839 2.00333,6.553048 2.53318,10.476879 0.29393,2.176636 1.5784,3.535009 2.60346,4.515487 0.51253,0.49024 0.96502,0.90843 1.25005,1.279504 0.28504,0.37111 0.40871,0.64974 0.41807,1.0232 0.0236,0.93864 -0.17182,0.97536 -0.64079,1.23041 -0.23448,0.12753 -0.55056,0.24612 -0.90641,0.41031 -0.35584,0.16419 -0.79412,0.38131 -1.12706,0.86145 -0.40406,0.58271 -0.58463,1.22056 -0.65836,1.90014 -0.88397,0.23408 -1.40847,0.19674 -1.87068,0.0656 -0.52934,-0.15015 -1.05279,-0.49806 -1.8185,-0.93534 a 1,1 0 0 0 -1.36322,0.3731 1,1 0 0 0 0.37103,1.36322 c 0.67824,0.38733 1.3385,0.86058 2.26343,1.12293 0.68856,0.19532 1.48294,0.23219 2.41794,0.0558 0.0229,0.36809 0.049,0.73873 0.0667,1.12293 0.052,1.1327 0.30161,1.90369 0.26769,2.46652 -0.0339,0.56283 -0.20806,1.10628 -1.33997,2.13114 -0.78367,0.70949 -2.69759,0.73727 -4.79506,0.50746 -1.04874,-0.1149 -2.11246,-0.2606 -3.10317,-0.28474 -0.99071,-0.0242 -1.95633,0.0269 -2.77554,0.63252 -1.35082,0.99862 -2.14554,2.77213 -2.78329,4.33204 -0.4141,1.0128 -0.66609,1.78237 -0.82992,2.31148 h -2.96675 z m -12.20235,12.339299 a 1,1 0 0 0 -0.44029,0.06511 l -5.11545,1.988509 a 1,1 0 0 0 -0.56999,1.295011 1,1 0 0 0 1.2945,0.569991 l 5.11545,-1.990059 a 1,1 0 0 0 0.5705,-1.295011 1,1 0 0 0 -0.85472,-0.633553 z m 23.92877,0.09922 c -0.97074,-0.0033 -1.84389,0.201148 -2.59984,0.399976 a 1,1 0 0 0 -0.71262,1.220597 1,1 0 0 0 1.22266,0.712618 c 1.60375,-0.421809 2.68333,-0.795321 4.66225,0.47284 a 1,1 0 0 0 1.38079,-0.302824 1,1 0 0 0 -0.30282,-1.380795 c -1.2466,-0.798859 -2.4058,-1.085235 -3.45509,-1.119311 -0.0656,-0.0021 -0.13062,-0.0029 -0.19533,-0.0031 z m -26.00358,3.760494 a 1.8627785,1.7385932 0 0 0 -1.86294,1.738396 1.8627785,1.7385932 0 0 0 1.86294,1.738911 1.8627785,1.7385932 0 0 0 1.86242,-1.738911 1.8627785,1.7385932 0 0 0 -1.86242,-1.738396 z m 26.45833,0 a 1.8627785,1.7385932 0 0 0 -1.86294,1.738396 1.8627785,1.7385932 0 0 0 1.86294,1.738911 1.8627785,1.7385932 0 0 0 1.86242,-1.738911 1.8627785,1.7385932 0 0 0 -1.86242,-1.738396 z m -27.5978,9.591143 c -0.78142,0.0193 -1.83692,0.54699 -3.50883,1.82728 l 0.0408,2.63911 c 5.19485,1.15268 6.32282,-2.35347 4.79609,-3.87004 -0.38733,-0.38476 -0.79343,-0.60958 -1.32809,-0.59635 z" /><g
       id="g134"
       transform="translate(0,1.058334)" /></g></svg>
