<?xml version="1.0" encoding="UTF-8" standalone="no"?>
<!-- Created with Inkscape (http://www.inkscape.org/) -->

<svg
   width="60.000038mm"
   height="60.000019mm"
   viewBox="0 0 60.000038 60.000019"
   version="1.1"
   id="svg1"
   xml:space="preserve"
   inkscape:version="1.3.2 (091e20e, 2023-11-25, custom)"
   sodipodi:docname="depression.svg"
   xmlns:inkscape="http://www.inkscape.org/namespaces/inkscape"
   xmlns:sodipodi="http://sodipodi.sourceforge.net/DTD/sodipodi-0.dtd"
   xmlns="http://www.w3.org/2000/svg"
   xmlns:svg="http://www.w3.org/2000/svg"><sodipodi:namedview
     id="namedview1"
     pagecolor="#ffffff"
     bordercolor="#000000"
     borderopacity="0.25"
     inkscape:showpageshadow="2"
     inkscape:pageopacity="0.0"
     inkscape:pagecheckerboard="0"
     inkscape:deskcolor="#d1d1d1"
     inkscape:document-units="mm"
     inkscape:zoom="0.35449306"
     inkscape:cx="741.9045"
     inkscape:cy="297.60808"
     inkscape:window-width="1366"
     inkscape:window-height="745"
     inkscape:window-x="-8"
     inkscape:window-y="-8"
     inkscape:window-maximized="1"
     inkscape:current-layer="layer1"
     showguides="false" /><defs
     id="defs1" /><g
     inkscape:label="Layer 1"
     inkscape:groupmode="layer"
     id="layer1"
     transform="translate(-296.33346,-68.79167)"><path
       id="path43"
       style="fill:#59468d;fill-opacity:1;stroke-width:18;stroke-linecap:round;paint-order:fill markers stroke"
       d="M 296.33346,98.791673 A 30,30 0 0 0 326.33348,128.79169 30,30 0 0 0 356.3335,98.791673 30,30 0 0 0 326.33348,68.79167 30,30 0 0 0 296.33346,98.791673 Z" /><path
       id="path46"
       style="color:#000000;fill:#ffffff;stroke-linecap:round;stroke-linejoin:round;-inkscape-stroke:none;paint-order:fill markers stroke"
       d="m 325.30211,75.344238 c -0.30349,-0.001 -0.60692,0.0036 -0.90951,0.01344 -2.42071,0.07876 -4.80026,0.510368 -6.94118,1.378727 -8.45857,3.430819 -12.99821,12.256486 -9.75392,19.638595 1.52927,3.479732 3.09983,5.76446 4.2478,7.57421 1.14798,1.80975 1.83048,3.06484 1.89653,4.71082 0.0632,1.5759 -0.72002,4.08107 -1.56632,6.09369 -0.8463,2.01261 -1.711,3.55895 -1.711,3.55895 a 1,1 0 0 0 0.38654,1.36116 1,1 0 0 0 1.3596,-0.38499 c 0,0 0.91573,-1.63589 1.80868,-3.75946 0.89295,-2.12358 1.81016,-4.70948 1.72031,-6.94944 -0.0871,-2.16992 -1.02589,-3.83961 -2.20659,-5.70095 -1.1807,-1.86134 -2.64689,-3.993927 -4.10362,-7.308592 -2.72773,-6.206706 1.08361,-13.90173 8.67389,-16.980359 3.74258,-1.518004 8.63952,-1.557639 12.91755,-0.545186 4.27807,1.012453 7.88356,3.126013 9.16844,5.345927 2.41723,4.17632 2.23024,5.911869 2.36161,8.525577 a 1,1 0 0 0 -0.0413,0.01705 c -1.44061,0.822909 -2.74027,1.614076 -4.92011,0.920357 a 1,1 0 0 0 -1.25574,0.650089 1,1 0 0 0 0.65009,1.255738 c 0.32255,0.102648 0.63591,0.177977 0.94103,0.23151 a 1.8627785,1.7385932 0 0 0 -0.30128,0.947229 1.8627785,1.7385932 0 0 0 1.86294,1.738395 1.8627785,1.7385932 0 0 0 1.86242,-1.738395 1.8627785,1.7385932 0 0 0 -0.42995,-1.107943 c 0.68948,-0.193983 1.30321,-0.472077 1.84278,-0.753959 0.34712,2.051012 1.57358,3.36072 2.56418,4.308264 0.51253,0.490242 0.96295,0.906335 1.24799,1.277442 0.28503,0.371106 0.40869,0.649726 0.41806,1.023196 0.0236,0.9387 -0.17182,0.97587 -0.64079,1.23093 -0.23448,0.12752 -0.54848,0.2456 -0.90433,0.40979 -0.35584,0.16419 -0.79413,0.38131 -1.12707,0.86145 -0.98349,1.41831 -0.6818,3.14901 -0.59376,5.06842 0.052,1.1327 0.30367,1.90576 0.26975,2.46859 -0.0339,0.56283 -0.21015,1.10421 -1.34203,2.12907 -0.78368,0.70955 -2.69555,0.73934 -4.79299,0.50953 -1.04874,-0.1149 -2.11246,-0.26266 -3.10317,-0.28681 -0.9907,-0.0241 -1.95636,0.029 -2.77554,0.63459 -1.35082,0.99862 -2.14555,2.77005 -2.7833,4.32997 -0.63775,1.55991 -1.01957,2.92798 -1.01957,2.92798 a 1,1 0 0 0 0.69556,1.23249 1,1 0 0 0 1.23042,-0.69557 c 0,0 0.35468,-1.26759 0.94309,-2.70681 0.5884,-1.43923 1.51191,-3.02836 2.12339,-3.48041 0.16196,-0.11973 0.71742,-0.26233 1.53685,-0.24236 0.81947,0.02 1.85381,0.1569 2.93574,0.27544 2.16385,0.23709 4.6451,0.53148 6.35362,-1.01545 1.36027,-1.23163 1.9291,-2.41239 1.99419,-3.49229 0.0651,-1.0799 -0.23064,-1.87233 -0.26768,-2.67994 -0.09,-1.96117 -0.0562,-3.4135 0.23823,-3.83801 -0.0135,0.0194 0.0737,-0.069 0.32194,-0.18345 0.24823,-0.11454 0.61769,-0.24788 1.02371,-0.4687 0.81205,-0.44164 1.72241,-1.49302 1.68362,-3.0391 -0.0218,-0.86892 -0.38725,-1.610486 -0.83199,-2.189526 -0.44475,-0.579042 -0.96427,-1.040196 -1.45107,-1.505851 -0.97365,-0.931314 -1.7973,-1.79373 -2.00608,-3.339848 -0.47554,-3.521684 0.37107,-5.760853 -2.7833,-11.210685 -1.77643,-3.069213 -5.82384,-5.197116 -10.4376,-6.289022 -2.01853,-0.47771 -4.15529,-0.748171 -6.27972,-0.75551 z m -2.46032,7.372677 c -1.53326,0 -2.70135,0.67455 -3.47265,1.353406 -0.38565,0.339426 -0.68522,0.680515 -0.91209,0.945162 -0.17015,0.198483 -0.32902,0.362337 -0.37156,0.411861 -0.0416,0.01649 -0.19186,0.09401 -0.38809,0.176216 -0.26721,0.111944 -0.62586,0.267558 -0.99632,0.523483 -0.74091,0.511847 -1.46251,1.515188 -1.55287,2.972428 -0.11557,1.863637 1.47322,3.33003 3.26801,3.330029 h 7.2037 c -0.44388,0.727581 -1.12241,1.928621 -1.12241,2.488221 0,0.827857 0.67127,1.499123 1.49913,1.499133 0.82786,-1e-5 1.49862,-0.671276 1.49862,-1.499133 0,-0.5596 -0.67854,-1.76064 -1.12242,-2.488221 h 3.0763 c 1.79352,0 3.2675,-1.475785 3.2675,-3.269568 0,-0.819392 -0.22477,-1.663642 -0.75757,-2.368847 -0.53279,-0.705206 -1.41064,-1.230919 -2.46084,-1.306897 -0.76455,-0.05531 -1.34715,-0.123252 -1.72496,-0.203089 -0.26561,-0.05613 -0.4089,-0.130391 -0.44596,-0.14366 -0.0452,-0.06064 -0.16331,-0.205525 -0.29611,-0.370003 -0.19839,-0.245709 -0.47325,-0.557234 -0.83767,-0.862997 -0.72885,-0.611523 -1.85577,-1.187524 -3.35174,-1.187524 z m 0,1.999878 c 1.01066,0 1.60946,0.337378 2.06654,0.720886 0.22854,0.191754 0.41344,0.396591 0.56638,0.586011 0.15294,0.189421 0.21563,0.321892 0.46095,0.562239 0.41992,0.411422 0.88547,0.53644 1.42575,0.650607 0.54028,0.114167 1.18464,0.185492 1.99213,0.243912 0.52183,0.03775 0.78963,0.224357 1.00976,0.515731 0.22014,0.291374 0.35346,0.726131 0.35346,1.163753 0,0.720254 -0.54708,1.269691 -1.26762,1.26969 h -11.03292 c -0.71925,0 -1.31178,-0.561587 -1.27175,-1.207161 0.0589,-0.949359 0.33573,-1.203924 0.69349,-1.451074 0.17888,-0.123576 0.39507,-0.222466 0.63252,-0.321944 0.23746,-0.09948 0.48602,-0.163182 0.82269,-0.418063 0.33352,-0.252492 0.47083,-0.467256 0.68161,-0.713135 0.21078,-0.245875 0.44391,-0.507884 0.71469,-0.746207 0.54156,-0.476646 1.17894,-0.855245 2.15232,-0.855245 z m -2.13682,10.289294 c 0,0 -1.49913,2.258784 -1.49913,3.086634 0,0.827858 0.67127,1.499123 1.49913,1.499133 0.82786,-1e-5 1.49862,-0.671275 1.49862,-1.499133 0,-0.82785 -1.49862,-3.086634 -1.49862,-3.086634 z m 16.93334,3.704167 c 0,0 -1.49914,2.258786 -1.49914,3.086636 0,0.82786 0.67128,1.49912 1.49914,1.49913 0.82784,-1e-5 1.49861,-0.67127 1.49861,-1.49913 0,-0.82785 -1.49861,-3.086636 -1.49861,-3.086636 z" /><g
       id="g134"
       transform="translate(0,1.058334)" /></g></svg>
