<?xml version="1.0" encoding="UTF-8" standalone="no"?>
<!-- Created with Inkscape (http://www.inkscape.org/) -->

<svg
   width="60.000038mm"
   height="60.000019mm"
   viewBox="0 0 60.000038 60.000019"
   version="1.1"
   id="svg1"
   xml:space="preserve"
   inkscape:version="1.3.2 (091e20e, 2023-11-25, custom)"
   sodipodi:docname="growth.svg"
   xmlns:inkscape="http://www.inkscape.org/namespaces/inkscape"
   xmlns:sodipodi="http://sodipodi.sourceforge.net/DTD/sodipodi-0.dtd"
   xmlns="http://www.w3.org/2000/svg"
   xmlns:svg="http://www.w3.org/2000/svg"><sodipodi:namedview
     id="namedview1"
     pagecolor="#ffffff"
     bordercolor="#000000"
     borderopacity="0.25"
     inkscape:showpageshadow="2"
     inkscape:pageopacity="0.0"
     inkscape:pagecheckerboard="0"
     inkscape:deskcolor="#d1d1d1"
     inkscape:document-units="mm"
     inkscape:zoom="0.42484336"
     inkscape:cx="381.31701"
     inkscape:cy="71.791165"
     inkscape:window-width="1366"
     inkscape:window-height="745"
     inkscape:window-x="-8"
     inkscape:window-y="-8"
     inkscape:window-maximized="1"
     inkscape:current-layer="layer1"
     showguides="false" /><defs
     id="defs1" /><g
     inkscape:label="Layer 1"
     inkscape:groupmode="layer"
     id="layer1"
     transform="translate(-359.8335,-68.79167)"><path
       id="path83"
       style="fill:#59468d;fill-opacity:1;stroke-width:18;stroke-linecap:round;paint-order:fill markers stroke"
       d="M 359.8335,98.791673 A 30,30 0 0 0 389.83352,128.79169 30,30 0 0 0 419.83354,98.791673 30,30 0 0 0 389.83352,68.79167 30,30 0 0 0 359.8335,98.791673 Z" /><path
       id="path84"
       style="color:#000000;fill:#ffffff;stroke-linecap:round;stroke-linejoin:round;-inkscape-stroke:none;paint-order:fill markers stroke"
       d="m 382.74137,76.455281 c -0.4117,0.0035 -0.82887,0.05831 -1.24386,0.169509 -2.65587,0.711638 -4.24733,3.467774 -3.53569,6.123654 0.71164,2.655881 3.46777,4.247339 6.12365,3.535698 1.78591,-0.478533 3.08958,-1.882062 3.53622,-3.557407 l 10.55078,0.689367 c -0.0505,0.565388 -0.005,1.148513 0.14986,1.726513 0.1656,0.618009 0.44307,1.177375 0.80305,1.664493 l -4.93562,5.430677 c -1.55822,-0.908718 -3.46298,-1.222509 -5.33506,-0.720887 -3.53809,0.948026 -5.72072,4.47528 -5.07256,8.018633 l -5.78829,2.771929 c -1.20694,-1.4874 -3.22194,-2.21895 -5.18314,-1.69345 -2.65588,0.71165 -4.24683,3.46829 -3.53519,6.12419 0.71165,2.65589 3.46778,4.24682 6.12366,3.53517 2.65589,-0.71164 4.24683,-3.46776 3.53518,-6.12365 -0.006,-0.0227 -0.0133,-0.0447 -0.0196,-0.0672 l 5.50974,-2.63653 c 0.93522,1.84087 2.63469,3.14944 4.58577,3.62974 l -0.39843,5.60173 c -0.1781,0.0274 -0.35649,0.064 -0.53433,0.11163 -2.65589,0.71165 -4.24683,3.46776 -3.53518,6.12366 0.71164,2.65588 3.46776,4.24683 6.12365,3.53519 2.65588,-0.71164 4.24735,-3.46779 3.53571,-6.12366 -0.48193,-1.79857 -1.90201,-3.10747 -3.59307,-3.54501 l 0.39326,-5.51027 c 0.48983,-0.0232 0.98421,-0.097 1.47639,-0.22892 1.30808,-0.3505 2.42949,-1.05472 3.29282,-1.98075 l 5.00642,3.85609 c -0.56941,1.07741 -0.7522,2.36215 -0.41393,3.62458 0.71164,2.6559 3.46777,4.24736 6.12365,3.53572 2.65588,-0.71165 4.24735,-3.46778 3.53571,-6.12366 -0.71164,-2.6559 -3.46778,-4.24735 -6.12366,-3.53572 -0.70026,0.18764 -1.32564,0.51827 -1.85518,0.95085 l -5.12889,-3.95066 c 0.74528,-1.481431 0.97367,-3.228967 0.51263,-4.949571 -0.30981,-1.156233 -0.89534,-2.167743 -1.66656,-2.983274 l 4.84932,-5.337662 c 1.11827,0.661012 2.48953,0.892378 3.83542,0.531748 2.65588,-0.711642 4.24734,-3.467764 3.5357,-6.123655 -0.71164,-2.655881 -3.46829,-4.246828 -6.12417,-3.535187 -1.36685,0.366247 -2.45047,1.274443 -3.08457,2.431382 l -11.03502,-0.718307 c -0.0278,-0.190629 -0.0658,-0.381145 -0.11678,-0.571539 -0.60045,-2.2409 -2.65664,-3.723942 -4.87981,-3.705204 z m 0.17414,1.998329 c 1.28054,0.04743 2.42309,0.914542 2.774,2.224153 0.43189,1.611841 -0.50948,3.242312 -2.12132,3.674204 -1.61183,0.431889 -3.2423,-0.509481 -3.67419,-2.121322 -0.43189,-1.61184 0.50949,-3.242304 2.12132,-3.674193 0.30222,-0.08098 0.60469,-0.113784 0.90019,-0.102842 z m 20.36052,2.39417 c 1.28054,0.04744 2.42257,0.914546 2.77348,2.224158 0.43189,1.611841 -0.50948,3.242302 -2.12132,3.674193 -1.61184,0.431892 -3.24231,-0.50948 -3.6742,-2.121321 -0.43188,-1.611821 0.50948,-3.242302 2.12132,-3.674193 0.30222,-0.08098 0.60522,-0.113778 0.90072,-0.102837 z m -12.65245,12.428186 c 2.23058,-0.02568 4.26695,1.448096 4.87257,3.708304 0.71777,2.678763 -0.85694,5.4064 -3.53571,6.12417 -0.27188,0.0729 -0.54421,0.12041 -0.81494,0.14727 l 0.14367,-2.01021 a 1,1 0 0 0 -0.92811,-1.06867 1,1 0 0 0 -1.06815,0.92812 l -0.13849,1.94406 c -1.57021,-0.49635 -2.85736,-1.75851 -3.31763,-3.476274 -0.71778,-2.678763 0.85641,-5.405878 3.53519,-6.123653 0.41855,-0.112151 0.83852,-0.168363 1.2516,-0.173117 z m -16.39435,9.167404 c 1.28053,0.0474 2.42256,0.91452 2.77347,2.22415 0.43189,1.61184 -0.50948,3.2423 -2.12131,3.67419 -1.61183,0.43189 -3.24231,-0.50948 -3.6742,-2.12131 -0.43189,-1.61184 0.50948,-3.24232 2.12132,-3.6742 0.30221,-0.081 0.60521,-0.11378 0.90072,-0.10283 z m 31.08802,3.80183 c 1.28054,0.0474 2.42308,0.91453 2.77399,2.22416 0.43189,1.61184 -0.50949,3.2423 -2.12132,3.67419 -1.61183,0.43189 -3.24282,-0.50947 -3.67471,-2.12132 -0.43189,-1.61184 0.50948,-3.2423 2.12132,-3.67419 0.30222,-0.081 0.60521,-0.11379 0.90072,-0.10284 z m -15.82125,6.37274 c 1.28053,0.0474 2.42256,0.91454 2.77347,2.22415 0.43189,1.61183 -0.50948,3.24232 -2.12132,3.67421 -1.61184,0.43189 -3.2423,-0.50949 -3.67419,-2.12132 -0.43189,-1.61185 0.50947,-3.24231 2.12131,-3.6742 0.30222,-0.081 0.60521,-0.11379 0.90073,-0.10284 z" /><g
       id="g134"
       transform="translate(0,1.058334)" /></g></svg>
