<?xml version="1.0" encoding="UTF-8" standalone="no"?>
<!-- Created with Inkscape (http://www.inkscape.org/) -->

<svg
   width="210mm"
   height="297mm"
   viewBox="0 0 210 297"
   version="1.1"
   id="svg1"
   xml:space="preserve"
   inkscape:version="1.3.2 (091e20e, 2023-11-25, custom)"
   sodipodi:docname="emotions.svg"
   xmlns:inkscape="http://www.inkscape.org/namespaces/inkscape"
   xmlns:sodipodi="http://sodipodi.sourceforge.net/DTD/sodipodi-0.dtd"
   xmlns="http://www.w3.org/2000/svg"
   xmlns:svg="http://www.w3.org/2000/svg"><sodipodi:namedview
     id="namedview1"
     pagecolor="#ffffff"
     bordercolor="#000000"
     borderopacity="0.25"
     inkscape:showpageshadow="2"
     inkscape:pageopacity="0.0"
     inkscape:pagecheckerboard="0"
     inkscape:deskcolor="#d1d1d1"
     inkscape:document-units="mm"
     showgrid="true"
     showguides="false"
     inkscape:zoom="0.87418679"
     inkscape:cx="320.29768"
     inkscape:cy="195.03841"
     inkscape:window-width="1366"
     inkscape:window-height="745"
     inkscape:window-x="-8"
     inkscape:window-y="-8"
     inkscape:window-maximized="1"
     inkscape:current-layer="layer1"><inkscape:grid
       id="grid1"
       units="px"
       originx="0"
       originy="0"
       spacingx="0.26458333"
       spacingy="0.26458334"
       empcolor="#0099e5"
       empopacity="0.30196078"
       color="#0099e5"
       opacity="0.14901961"
       empspacing="5"
       dotted="false"
       gridanglex="30"
       gridanglez="30"
       visible="true" /></sodipodi:namedview><defs
     id="defs1" /><g
     inkscape:label="Layer 1"
     inkscape:groupmode="layer"
     id="layer1"><rect
       style="fill:#59468d;fill-opacity:1;stroke:none;stroke-width:0.627002;stroke-linecap:round;stroke-dasharray:none;paint-order:fill markers stroke"
       id="rect54"
       width="45.019562"
       height="43.848366"
       x="7.8971033"
       y="13.229167" /><rect
       style="fill:#59468d;fill-opacity:1;stroke:#ffffff;stroke-width:1;stroke-linecap:round;stroke-dasharray:none;paint-order:fill markers stroke"
       id="rect10"
       width="28.720537"
       height="27.973364"
       x="16.046618"
       y="21.166666"
       ry="6.2202172" /><path
       style="fill:#ffffff;fill-opacity:1;stroke:none;stroke-width:0.479421;stroke-linecap:round;stroke-dasharray:none;paint-order:fill markers stroke"
       d="m 24.923404,43.319197 c 0,0 2.655368,-1.319083 5.296434,-1.321 2.641066,-0.0019 5.286899,1.321 5.286899,1.321 0,0 -1.322917,-3.96875 -5.291667,-3.96875 -3.968749,0 -5.291666,3.96875 -5.291666,3.96875 z"
       id="path55"
       sodipodi:nodetypes="czczc" /><g
       id="g61"
       transform="translate(0.21537467,-1.130804)"><g
         id="g60"><path
           id="path54"
           style="fill:#ffffff;fill-opacity:1;stroke-width:0.65835;stroke-linecap:round;paint-order:fill markers stroke"
           d="m 26.724279,32.084342 c 0.601261,1.041413 0.244445,2.373062 -0.796967,2.974323 -1.041413,0.601259 -2.373063,0.244444 -2.974322,-0.796968 -0.60126,-1.041413 0.389787,-1.274537 1.4312,-1.875799 1.041413,-0.60126 1.738829,-1.342969 2.340089,-0.301556 z"
           sodipodi:nodetypes="sssss" /><path
           style="fill:#ffffff;fill-opacity:1;stroke:#ffffff;stroke-width:1;stroke-linecap:round;stroke-dasharray:none;paint-order:fill markers stroke"
           d="m 21.166666,31.750001 c 1.952639,-0.60478 2.645833,-1.322917 3.96875,-2.645833"
           id="path56"
           sodipodi:nodetypes="cc" /></g><g
         id="g59"><path
           id="path58"
           style="fill:#ffffff;fill-opacity:1;stroke-width:0.65835;stroke-linecap:round;paint-order:fill markers stroke"
           d="m 33.658742,32.084342 c -0.601261,1.041413 -0.244445,2.373062 0.796967,2.974323 1.041413,0.601259 2.373063,0.244444 2.974322,-0.796968 0.60126,-1.041413 -0.389787,-1.274537 -1.4312,-1.875799 -1.041413,-0.60126 -1.738829,-1.342969 -2.340089,-0.301556 z"
           sodipodi:nodetypes="sssss" /><path
           style="fill:#ffffff;fill-opacity:1;stroke:#ffffff;stroke-width:1;stroke-linecap:round;stroke-dasharray:none;paint-order:fill markers stroke"
           d="m 39.216355,31.750001 c -1.952639,-0.60478 -2.645833,-1.322917 -3.96875,-2.645833"
           id="path59"
           sodipodi:nodetypes="cc" /></g></g><rect
       style="fill:#59468d;fill-opacity:1;stroke:none;stroke-width:0.627002;stroke-linecap:round;stroke-dasharray:none;paint-order:fill markers stroke"
       id="rect64"
       width="45.019562"
       height="43.848366"
       x="55.5625"
       y="13.229167" /><path
       sodipodi:type="star"
       style="fill:none;fill-opacity:1;stroke:#ffffff;stroke-width:1;stroke-linecap:round;stroke-dasharray:none;paint-order:fill markers stroke"
       id="path83"
       inkscape:flatsided="true"
       sodipodi:sides="6"
       sodipodi:cx="79.375"
       sodipodi:cy="34.395832"
       sodipodi:r1="20.96729"
       sodipodi:r2="19.442825"
       sodipodi:arg1="0.82109747"
       sodipodi:arg2="1.3446962"
       inkscape:rounded="0"
       inkscape:randomized="0"
       d="M 93.662498,49.741669 73.228864,54.442086 58.941367,39.09625 65.087502,19.049995 85.521136,14.349578 99.808633,29.695415 Z"
       transform="translate(-1.0583333,0.52916667)" /><g
       id="g86"
       transform="translate(-1.0583333,0.52916667)"><path
         style="fill:none;fill-opacity:1;stroke:#ffffff;stroke-width:1;stroke-linecap:round;stroke-dasharray:none;paint-order:fill markers stroke"
         d="M 85.521136,14.349578 79.374996,35.71875 93.662497,49.741668"
         id="path84"
         sodipodi:nodetypes="ccc" /><path
         style="fill:none;fill-opacity:1;stroke:#ffffff;stroke-width:1;stroke-linecap:round;stroke-dasharray:none;paint-order:fill markers stroke"
         d="M 98.954164,29.897918 79.374996,35.71875 65.352082,19.314584"
         id="path85"
         sodipodi:nodetypes="ccc" /><path
         style="fill:none;fill-opacity:1;stroke:#ffffff;stroke-width:1;stroke-linecap:round;stroke-dasharray:none;paint-order:fill markers stroke"
         d="M 73.228864,54.442086 79.374996,35.71875 58.941367,39.09625"
         id="path86"
         sodipodi:nodetypes="ccc" /></g><rect
       style="fill:#59468d;fill-opacity:1;stroke:#ffffff;stroke-width:1;stroke-linecap:round;stroke-dasharray:none;paint-order:fill markers stroke"
       id="rect65"
       width="28.720537"
       height="27.973364"
       x="63.712013"
       y="21.166666"
       ry="6.2202172" /><path
       style="fill:#ffffff;fill-opacity:1;stroke:none;stroke-width:0.479421;stroke-linecap:round;stroke-dasharray:none;paint-order:fill markers stroke"
       d="m 73.309782,43.319196 c 0,0 2.655368,-1.319083 5.296434,-1.321 2.641066,-0.0019 5.286899,1.321 5.286899,1.321 0,0 -1.322917,-3.96875 -5.291667,-3.96875 -3.968749,0 -5.291666,3.96875 -5.291666,3.96875 z"
       id="path65"
       sodipodi:nodetypes="czczc" /><g
       id="g69"
       transform="matrix(-0.8660254,-0.5,-0.5,0.8660254,131.70244,21.424118)"><path
         id="path68"
         style="fill:#ffffff;fill-opacity:1;stroke-width:0.65835;stroke-linecap:round;paint-order:fill markers stroke"
         d="m 33.658742,32.084342 c -0.601261,1.041413 -0.244445,2.373062 0.796967,2.974323 1.041413,0.601259 2.373063,0.244444 2.974322,-0.796968 0.60126,-1.041413 -0.389787,-1.274537 -1.4312,-1.875799 -1.041413,-0.60126 -1.738829,-1.342969 -2.340089,-0.301556 z"
         sodipodi:nodetypes="sssss" /><path
         style="fill:#ffffff;fill-opacity:1;stroke:#ffffff;stroke-width:1;stroke-linecap:round;stroke-dasharray:none;paint-order:fill markers stroke"
         d="m 39.216355,31.750001 c -1.952639,-0.60478 -2.645833,-1.322917 -3.96875,-2.645833"
         id="path69"
         sodipodi:nodetypes="cc" /></g><g
       id="g71"
       transform="rotate(-30,52.815536,-37.198469)"><path
         id="path70"
         style="fill:#ffffff;fill-opacity:1;stroke-width:0.65835;stroke-linecap:round;paint-order:fill markers stroke"
         d="m 33.658742,32.084342 c -0.601261,1.041413 -0.244445,2.373062 0.796967,2.974323 1.041413,0.601259 2.373063,0.244444 2.974322,-0.796968 0.60126,-1.041413 -0.389787,-1.274537 -1.4312,-1.875799 -1.041413,-0.60126 -1.738829,-1.342969 -2.340089,-0.301556 z"
         sodipodi:nodetypes="sssss" /><path
         style="fill:#ffffff;fill-opacity:1;stroke:#ffffff;stroke-width:1;stroke-linecap:round;stroke-dasharray:none;paint-order:fill markers stroke"
         d="m 39.216355,31.750001 c -1.952639,-0.60478 -2.645833,-1.322917 -3.96875,-2.645833"
         id="path71"
         sodipodi:nodetypes="cc" /></g><rect
       style="fill:#59468d;fill-opacity:1;stroke:none;stroke-width:0.627002;stroke-linecap:round;stroke-dasharray:none;paint-order:fill markers stroke"
       id="rect71"
       width="45.019562"
       height="43.848366"
       x="103.1875"
       y="13.229167" /><path
       sodipodi:type="star"
       style="fill:#59468d;fill-opacity:1;stroke:#ffffff;stroke-width:1;stroke-linecap:round;stroke-dasharray:none;paint-order:fill markers stroke"
       id="path99"
       inkscape:flatsided="true"
       sodipodi:sides="4"
       sodipodi:cx="129.64583"
       sodipodi:cy="18.520832"
       sodipodi:r1="21.773136"
       sodipodi:r2="15.083571"
       sodipodi:arg1="2.0235747"
       sodipodi:arg2="2.8089729"
       inkscape:rounded="0"
       inkscape:randomized="0"
       d="M 120.12083,38.100001 110.06666,8.9958333 139.17083,-1.0583369 149.225,28.045831 Z"
       inkscape:transform-center-x="1.6333332e-06"
       transform="translate(-4.2333333,15.875)" /><rect
       style="fill:#59468d;fill-opacity:1;stroke:#ffffff;stroke-width:1;stroke-linecap:round;stroke-dasharray:none;paint-order:fill markers stroke"
       id="rect72"
       width="28.720537"
       height="27.973364"
       x="111.33701"
       y="25.929171"
       ry="6.2202172" /><g
       id="g74"
       transform="matrix(-0.8660254,-0.5,-0.5,0.8660254,179.32744,28.303289)"><path
         id="path73"
         style="fill:#ffffff;fill-opacity:1;stroke-width:0.65835;stroke-linecap:round;paint-order:fill markers stroke"
         d="m 33.658742,32.084342 c -0.601261,1.041413 -0.244445,2.373062 0.796967,2.974323 1.041413,0.601259 2.373063,0.244444 2.974322,-0.796968 0.60126,-1.041413 -1.214257,-0.512662 -2.25567,-1.113924 -1.041413,-0.60126 -0.914359,-2.104844 -1.515619,-1.063431 z"
         sodipodi:nodetypes="sssss" /><path
         style="fill:none;fill-opacity:1;stroke:#ffffff;stroke-width:1;stroke-linecap:round;stroke-dasharray:none;paint-order:fill markers stroke"
         d="m 38.758083,31.485418 c -1.837981,0.226144 -3.248243,0.02296 -4.233333,-2.187561"
         id="path74"
         sodipodi:nodetypes="cc" /><path
         style="fill:none;fill-opacity:1;stroke:#ffffff;stroke-width:1;stroke-linecap:round;stroke-dasharray:none;paint-order:fill markers stroke"
         d="m 38.758083,31.485418 c -1.837981,0.226144 -3.248243,0.02296 -4.233333,-2.187561"
         id="path79"
         sodipodi:nodetypes="cc" /></g><g
       id="g78"
       transform="rotate(-30,89.729315,-123.61583)"><path
         id="path77"
         style="fill:#ffffff;fill-opacity:1;stroke-width:0.65835;stroke-linecap:round;paint-order:fill markers stroke"
         d="m 33.658742,32.084342 c -0.601261,1.041413 -0.244445,2.373062 0.796967,2.974323 1.041413,0.601259 2.373063,0.244444 2.974322,-0.796968 0.60126,-1.041413 -1.214257,-0.512662 -2.25567,-1.113924 -1.041413,-0.60126 -0.914359,-2.104844 -1.515619,-1.063431 z"
         sodipodi:nodetypes="sssss" /><path
         style="fill:none;fill-opacity:1;stroke:#ffffff;stroke-width:1;stroke-linecap:round;stroke-dasharray:none;paint-order:fill markers stroke"
         d="m 38.758083,31.485418 c -1.837981,0.226144 -3.248243,0.02296 -4.233333,-2.187561"
         id="path78"
         sodipodi:nodetypes="cc" /></g><path
       style="fill:none;fill-opacity:1;stroke:#ffffff;stroke-width:1;stroke-linecap:round;stroke-dasharray:none;paint-order:fill markers stroke"
       d="m 124.47063,47.120183 c 1.47866,-1.114837 2.80158,-1.644006 4.75995,-0.222183"
       id="path82"
       sodipodi:nodetypes="cc" /><rect
       style="fill:#59468d;fill-opacity:1;stroke:none;stroke-width:0.627002;stroke-linecap:round;stroke-dasharray:none;paint-order:fill markers stroke"
       id="rect86"
       width="45.019562"
       height="43.848366"
       x="150.60048"
       y="13.229168" /><path
       style="fill:#59468d;fill-opacity:1;stroke:#ffffff;stroke-width:1;stroke-linecap:round;stroke-dasharray:none;paint-order:fill markers stroke"
       d="m 171.97916,27.78125 2.64583,-11.906249 3.96875,9.260416 6.61459,-6.614583 -1.32292,9.260417 9.26042,-1e-6 -9.26042,6.614583 7.9375,5.291667 h -9.26042 l -29.10416,2.645835 7.9375,-7.937502 -7.9375,-2.645832 5.29167,-2.645833 -3.96875,-7.937501 10.58333,6.614584 V 15.875 Z"
       id="path100"
       sodipodi:nodetypes="ccccccccccccccccc" /><rect
       style="fill:#59468d;fill-opacity:1;stroke:#ffffff;stroke-width:1;stroke-linecap:round;stroke-dasharray:none;paint-order:fill markers stroke"
       id="rect87"
       width="28.720537"
       height="27.973364"
       x="158.75"
       y="23.812504"
       ry="6.2202172" /><g
       id="g93"
       transform="rotate(-30,107.35261,-213.08528)"><path
         id="path92"
         style="fill:#ffffff;fill-opacity:1;stroke-width:0.65835;stroke-linecap:round;paint-order:fill markers stroke"
         d="m 34.230237,31.806408 c -0.85031,-0.85031 -0.85031,2.228935 -1e-6,3.079246 0.850311,0.850309 3.929555,0.850308 3.079245,-1e-6 z"
         sodipodi:nodetypes="ssss" /><path
         style="fill:#ffffff;fill-opacity:1;stroke:#ffffff;stroke-width:1;stroke-linecap:round;stroke-dasharray:none;paint-order:fill markers stroke"
         d="m 38.52368,33.328757 c -1.388645,-1.500075 -1.6299,-2.468596 -2.114121,-4.275734"
         id="path93"
         sodipodi:nodetypes="cc" /></g><g
       id="g95"
       transform="matrix(-0.8660254,-0.5,-0.5,0.8660254,226.11166,25.128291)"><path
         id="path94"
         style="fill:#ffffff;fill-opacity:1;stroke-width:0.65835;stroke-linecap:round;paint-order:fill markers stroke"
         d="m 34.230237,31.806408 c -0.85031,-0.85031 -0.85031,2.228935 -1e-6,3.079246 0.850311,0.850309 3.929555,0.850308 3.079245,-1e-6 z"
         sodipodi:nodetypes="ssss" /><path
         style="fill:#ffffff;fill-opacity:1;stroke:#ffffff;stroke-width:1;stroke-linecap:round;stroke-dasharray:none;paint-order:fill markers stroke"
         d="m 38.52368,33.328757 c -1.388645,-1.500075 -1.6299,-2.468596 -2.114121,-4.275734"
         id="path95"
         sodipodi:nodetypes="cc" /></g><path
       id="path96"
       style="fill:#ffffff;fill-opacity:1;stroke:none;stroke-width:1;stroke-linecap:round;stroke-dasharray:none;paint-order:fill markers stroke"
       d="m 173.83125,39.158335 c -1.87089,0 -3.96875,2.645835 -3.96875,3.96875 0,1.322917 2.64583,-0.529167 3.96875,-0.529167 1.32292,0 3.96875,1.852084 3.96875,0.529167 0,-1.322915 -2.09786,-3.96875 -3.96875,-3.96875 z"
       sodipodi:nodetypes="zszsz" /><rect
       style="fill:#59468d;fill-opacity:1;stroke:none;stroke-width:0.627002;stroke-linecap:round;stroke-dasharray:none;paint-order:fill markers stroke"
       id="rect100"
       width="45.019562"
       height="43.848366"
       x="7.8971043"
       y="63.500004" /><path
       style="fill:#59468d;fill-opacity:1;stroke:#ffffff;stroke-width:1;stroke-linecap:round;stroke-dasharray:none;paint-order:fill markers stroke"
       d="m 29.275785,78.052085 2.64583,-11.906249 3.96875,9.260416 6.61459,-6.614583 -1.32292,9.260417 9.26042,-10e-7 -9.26042,6.614583 7.9375,5.291667 h -9.26042 l -29.10416,2.645835 7.9375,-7.937502 -7.9375,-2.645832 5.29167,-2.645833 -3.96875,-7.937501 10.58333,6.614584 V 66.145835 Z"
       id="path101"
       sodipodi:nodetypes="ccccccccccccccccc" /><rect
       style="fill:#59468d;fill-opacity:1;stroke:#ffffff;stroke-width:1;stroke-linecap:round;stroke-dasharray:none;paint-order:fill markers stroke"
       id="rect101"
       width="28.720537"
       height="27.973364"
       x="16.046627"
       y="74.083336"
       ry="6.2202172" /><g
       id="g103"
       transform="rotate(-30,129.80757,78.33826)"><path
         id="path102"
         style="fill:#ffffff;fill-opacity:1;stroke-width:0.65835;stroke-linecap:round;paint-order:fill markers stroke"
         d="m 34.230237,31.806408 c -0.85031,-0.85031 -0.85031,2.228935 -1e-6,3.079246 0.850311,0.850309 3.929555,0.850308 3.079245,-1e-6 z"
         sodipodi:nodetypes="ssss" /><path
         style="fill:#ffffff;fill-opacity:1;stroke:#ffffff;stroke-width:1;stroke-linecap:round;stroke-dasharray:none;paint-order:fill markers stroke"
         d="m 38.52368,33.328757 c -1.388645,-1.500075 -1.6299,-2.468596 -2.114121,-4.275734"
         id="path103"
         sodipodi:nodetypes="cc" /></g><g
       id="g105"
       transform="matrix(-0.8660254,-0.5,-0.5,0.8660254,83.408285,75.399126)"><path
         id="path104"
         style="fill:#ffffff;fill-opacity:1;stroke-width:0.65835;stroke-linecap:round;paint-order:fill markers stroke"
         d="m 34.230237,31.806408 c -0.85031,-0.85031 -0.85031,2.228935 -1e-6,3.079246 0.850311,0.850309 3.929555,0.850308 3.079245,-1e-6 z"
         sodipodi:nodetypes="ssss" /><path
         style="fill:#ffffff;fill-opacity:1;stroke:#ffffff;stroke-width:1;stroke-linecap:round;stroke-dasharray:none;paint-order:fill markers stroke"
         d="m 38.52368,33.328757 c -1.388645,-1.500075 -1.6299,-2.468596 -2.114121,-4.275734"
         id="path105"
         sodipodi:nodetypes="cc" /></g><path
       id="path106"
       style="fill:#ffffff;fill-opacity:1;stroke:none;stroke-width:1;stroke-linecap:round;stroke-dasharray:none;paint-order:fill markers stroke"
       d="m 31.127875,89.42917 c -1.87089,0 -3.96875,2.645835 -3.96875,3.96875 0,1.322917 2.64583,-0.529167 3.96875,-0.529167 1.32292,0 3.96875,1.852084 3.96875,0.529167 0,-1.322915 -2.09786,-3.96875 -3.96875,-3.96875 z"
       sodipodi:nodetypes="zszsz" /><rect
       style="fill:#59468d;fill-opacity:1;stroke:none;stroke-width:0.627002;stroke-linecap:round;stroke-dasharray:none;paint-order:fill markers stroke"
       id="rect106"
       width="45.019562"
       height="43.848366"
       x="55.522102"
       y="63.500004" /><path
       style="fill:#59468d;fill-opacity:1;stroke:#ffffff;stroke-width:1;stroke-linecap:round;stroke-dasharray:none;paint-order:fill markers stroke"
       d="m 76.900785,78.052083 2.64583,-11.906249 3.96875,9.260416 6.61459,-6.614583 -1.32292,9.260417 9.26042,-10e-7 -9.26042,6.614583 7.9375,5.291667 h -9.26042 l -29.10416,2.645835 7.9375,-7.937502 -7.9375,-2.645832 5.29167,-2.645833 -3.96875,-7.937501 10.58333,6.614584 V 66.145833 Z"
       id="path107"
       sodipodi:nodetypes="ccccccccccccccccc" /><rect
       style="fill:#59468d;fill-opacity:1;stroke:#ffffff;stroke-width:1;stroke-linecap:round;stroke-dasharray:none;paint-order:fill markers stroke"
       id="rect107"
       width="28.720537"
       height="27.973364"
       x="63.671627"
       y="74.083336"
       ry="6.2202172" /><g
       id="g109"
       transform="rotate(-30,153.62007,-10.5312)"><path
         id="path108"
         style="fill:#ffffff;fill-opacity:1;stroke-width:0.65835;stroke-linecap:round;paint-order:fill markers stroke"
         d="m 34.230237,31.806408 c -0.85031,-0.85031 -0.85031,2.228935 -1e-6,3.079246 0.850311,0.850309 3.929555,0.850308 3.079245,-1e-6 z"
         sodipodi:nodetypes="ssss" /><path
         style="fill:#ffffff;fill-opacity:1;stroke:#ffffff;stroke-width:1;stroke-linecap:round;stroke-dasharray:none;paint-order:fill markers stroke"
         d="m 38.52368,33.328757 c -1.388645,-1.500075 -1.6299,-2.468596 -2.114121,-4.275734"
         id="path109"
         sodipodi:nodetypes="cc" /></g><g
       id="g111"
       transform="matrix(-0.8660254,-0.5,-0.5,0.8660254,131.03328,75.399124)"><path
         id="path110"
         style="fill:#ffffff;fill-opacity:1;stroke-width:0.65835;stroke-linecap:round;paint-order:fill markers stroke"
         d="m 34.230237,31.806408 c -0.85031,-0.85031 -0.85031,2.228935 -1e-6,3.079246 0.850311,0.850309 3.929555,0.850308 3.079245,-1e-6 z"
         sodipodi:nodetypes="ssss" /><path
         style="fill:#ffffff;fill-opacity:1;stroke:#ffffff;stroke-width:1;stroke-linecap:round;stroke-dasharray:none;paint-order:fill markers stroke"
         d="m 38.52368,33.328757 c -1.388645,-1.500075 -1.6299,-2.468596 -2.114121,-4.275734"
         id="path111"
         sodipodi:nodetypes="cc" /></g><path
       id="path112"
       style="fill:#ffffff;fill-opacity:1;stroke:none;stroke-width:1;stroke-linecap:round;stroke-dasharray:none;paint-order:fill markers stroke"
       d="m 78.752875,89.429168 c -1.87089,0 -3.96875,2.645835 -3.96875,3.96875 0,1.322917 2.64583,-0.529167 3.96875,-0.529167 1.32292,0 3.96875,1.852084 3.96875,0.529167 0,-1.322915 -2.09786,-3.96875 -3.96875,-3.96875 z"
       sodipodi:nodetypes="zszsz" /></g></svg>
