<?xml version="1.0" encoding="UTF-8" standalone="no"?>
<!-- Created with Inkscape (http://www.inkscape.org/) -->

<svg
   width="29.99972mm"
   height="30.000237mm"
   viewBox="0 0 29.99972 30.000237"
   version="1.1"
   id="svg1"
   xml:space="preserve"
   inkscape:version="1.3.2 (091e20e, 2023-11-25, custom)"
   sodipodi:docname="icon-linkedin.svg"
   xmlns:inkscape="http://www.inkscape.org/namespaces/inkscape"
   xmlns:sodipodi="http://sodipodi.sourceforge.net/DTD/sodipodi-0.dtd"
   xmlns="http://www.w3.org/2000/svg"
   xmlns:svg="http://www.w3.org/2000/svg"><sodipodi:namedview
     id="namedview1"
     pagecolor="#ffffff"
     bordercolor="#000000"
     borderopacity="0.25"
     inkscape:showpageshadow="2"
     inkscape:pageopacity="0.0"
     inkscape:pagecheckerboard="0"
     inkscape:deskcolor="#d1d1d1"
     inkscape:document-units="mm"
     showguides="true"
     inkscape:zoom="1.3687809"
     inkscape:cx="108.85599"
     inkscape:cy="97.532046"
     inkscape:window-width="1366"
     inkscape:window-height="745"
     inkscape:window-x="-8"
     inkscape:window-y="-8"
     inkscape:window-maximized="1"
     inkscape:current-layer="layer1" /><defs
     id="defs1" /><g
     inkscape:label="Layer 1"
     inkscape:groupmode="layer"
     id="layer1"
     transform="translate(-35.058324,-56.531694)"><path
       id="rect5"
       style="fill:#ffffff;paint-order:fill markers stroke"
       d="m 40.058534,56.531694 c -2.76999,0 -5.00021,2.230214 -5.00021,5.000212 v 19.999812 c 0,2.769998 2.23022,5.000212 5.00021,5.000212 h 19.99982 c 2.76999,0 4.99969,-2.230214 4.99969,-5.000212 V 61.531906 c 0,-2.769998 -2.2297,-5.000212 -4.99969,-5.000212 z m 1.67639,4.029211 a 2.6424417,2.6424417 0 0 1 2.64221,2.642216 2.6424417,2.6424417 0 0 1 -2.64221,2.642216 2.6424417,2.6424417 0 0 1 -2.64274,-2.642216 2.6424417,2.6424417 0 0 1 2.64274,-2.642216 z m 13.76402,6.786149 c 2.68257,-0.08229 5.58212,1.484296 5.24825,6.788217 v 8.004679 h -4.60437 v -8.004679 c 0.40386,-3.528953 -4.4057,-3.786358 -4.88549,-0.2651 v 8.269779 h -4.60437 V 67.785271 h 4.60437 v 1.763716 c 0.19975,-1.076642 2.15514,-2.137924 4.24161,-2.201933 z m -16.06259,0.438217 h 4.60437 V 82.13995 h -4.60437 z" /></g></svg>
