<?xml version="1.0" encoding="UTF-8" standalone="no"?>
<!-- Created with Inkscape (http://www.inkscape.org/) -->

<svg
   width="30.000237mm"
   height="30.000237mm"
   viewBox="0 0 30.000237 30.000237"
   version="1.1"
   id="svg1"
   xml:space="preserve"
   inkscape:version="1.3.2 (091e20e, 2023-11-25, custom)"
   sodipodi:docname="icon-instagram.svg"
   xmlns:inkscape="http://www.inkscape.org/namespaces/inkscape"
   xmlns:sodipodi="http://sodipodi.sourceforge.net/DTD/sodipodi-0.dtd"
   xmlns="http://www.w3.org/2000/svg"
   xmlns:svg="http://www.w3.org/2000/svg"><sodipodi:namedview
     id="namedview1"
     pagecolor="#ffffff"
     bordercolor="#000000"
     borderopacity="0.25"
     inkscape:showpageshadow="2"
     inkscape:pageopacity="0.0"
     inkscape:pagecheckerboard="0"
     inkscape:deskcolor="#d1d1d1"
     inkscape:document-units="mm"
     showguides="true"
     inkscape:zoom="1.7468592"
     inkscape:cx="85.868397"
     inkscape:cy="44.937795"
     inkscape:window-width="1366"
     inkscape:window-height="745"
     inkscape:window-x="-8"
     inkscape:window-y="-8"
     inkscape:window-maximized="1"
     inkscape:current-layer="layer1" /><defs
     id="defs1" /><g
     inkscape:label="Layer 1"
     inkscape:groupmode="layer"
     id="layer1"
     transform="translate(-95.055563,-56.235042)"><path
       id="rect2"
       style="fill:#ffffff;paint-order:fill markers stroke"
       d="m 100.05578,56.235042 c -2.770004,0 -5.000217,2.23022 -5.000217,5.000211 v 19.999813 c 0,2.769991 2.230213,5.000212 5.000217,5.000212 h 19.99981 c 2.77,0 5.00021,-2.230221 5.00021,-5.000212 V 61.235253 c 0,-2.769991 -2.23021,-5.000211 -5.00021,-5.000211 z m 5.51284,3.830773 h 9.37307 c 3.56972,10e-7 6.47454,2.906899 6.47454,6.476608 v 9.371004 c 0,3.569705 -2.90482,6.47454 -6.47454,6.47454 h -9.37307 c -3.56972,0 -6.474544,-2.904835 -6.474544,-6.47454 v -9.371004 c 0,-3.569709 2.904824,-6.476608 6.474544,-6.476608 z m 0,1.999878 c -2.49632,10e-7 -4.47466,1.980423 -4.47466,4.47673 v 9.371004 c 0,2.496304 1.97834,4.474662 4.47466,4.474662 h 9.37307 c 2.49632,0 4.47466,-1.978358 4.47466,-4.474662 v -9.371004 c 0,-2.496307 -1.97834,-4.47673 -4.47466,-4.47673 z m 10.78539,1.719792 a 1.4,1.4 0 0 1 1.40043,1.399915 1.4,1.4 0 0 1 -1.40043,1.399914 1.4,1.4 0 0 1 -1.39992,-1.399914 1.4,1.4 0 0 1 1.39992,-1.399915 z m -6.09989,1.612305 c 3.20737,0 5.83014,2.622775 5.83014,5.830135 0,3.20736 -2.62277,5.828068 -5.83014,5.828068 -3.20734,0 -5.82807,-2.620708 -5.82807,-5.828068 0,-3.20736 2.62073,-5.830135 5.82807,-5.830135 z m 0,1.999878 c -2.12648,0 -3.82819,1.703774 -3.82819,3.830257 0,2.126483 1.70171,3.82819 3.82819,3.82819 2.12649,0 3.83026,-1.701707 3.83026,-3.82819 0,-2.126483 -1.70377,-3.830257 -3.83026,-3.830257 z" /></g></svg>
