<?xml version="1.0" encoding="UTF-8" standalone="no"?>
<!-- Created with Inkscape (http://www.inkscape.org/) -->

<svg
   width="44.214245mm"
   height="10.945427mm"
   viewBox="0 0 44.214245 10.945427"
   version="1.1"
   id="svg5"
   sodipodi:docname="logo-color.svg"
   inkscape:version="1.3.2 (091e20e, 2023-11-25, custom)"
   xml:space="preserve"
   xmlns:inkscape="http://www.inkscape.org/namespaces/inkscape"
   xmlns:sodipodi="http://sodipodi.sourceforge.net/DTD/sodipodi-0.dtd"
   xmlns="http://www.w3.org/2000/svg"
   xmlns:svg="http://www.w3.org/2000/svg"><sodipodi:namedview
     id="namedview1"
     pagecolor="#ffffff"
     bordercolor="#000000"
     borderopacity="0.25"
     inkscape:showpageshadow="2"
     inkscape:pageopacity="0.0"
     inkscape:pagecheckerboard="0"
     inkscape:deskcolor="#d1d1d1"
     inkscape:document-units="mm"
     showgrid="false"
     showguides="true"
     inkscape:zoom="1.5675308"
     inkscape:cx="25.836812"
     inkscape:cy="16.905568"
     inkscape:window-width="1366"
     inkscape:window-height="745"
     inkscape:window-x="-8"
     inkscape:window-y="-8"
     inkscape:window-maximized="1"
     inkscape:current-layer="svg5"><inkscape:grid
       id="grid1"
       units="px"
       originx="-1.202202"
       originy="-0.95853089"
       spacingx="0.26458333"
       spacingy="0.26458332"
       empcolor="#0099e5"
       empopacity="0.30196078"
       color="#0099e5"
       opacity="0.14901961"
       empspacing="5"
       dotted="false"
       gridanglex="30"
       gridanglez="30"
       visible="false" /></sodipodi:namedview><defs
     id="defs2"><rect
       x="195.45624"
       y="6.3772053"
       width="195"
       height="49.999997"
       id="rect1" /><rect
       x="44.999996"
       y="-50"
       width="224.99998"
       height="65"
       id="rect13" /><rect
       x="80.787399"
       y="72.283463"
       width="609.44879"
       height="158.74016"
       id="rect94905-7" /><rect
       x="80.787399"
       y="72.283463"
       width="609.44879"
       height="158.74016"
       id="rect95479-9" /><rect
       x="44.999996"
       y="-50"
       width="224.99998"
       height="65"
       id="rect14" /><rect
       x="44.999996"
       y="-50"
       width="224.99998"
       height="65"
       id="rect19" /><rect
       x="44.999996"
       y="-50"
       width="224.99998"
       height="65"
       id="rect20" /><rect
       x="44.999996"
       y="-50"
       width="224.99998"
       height="65"
       id="rect21" /><rect
       x="44.999996"
       y="-50"
       width="224.99998"
       height="65"
       id="rect22" /><rect
       x="44.999996"
       y="-50"
       width="224.99998"
       height="65"
       id="rect4" /><rect
       x="44.999996"
       y="-50"
       width="224.99998"
       height="65"
       id="rect5" /><rect
       x="195.45624"
       y="6.3772053"
       width="195"
       height="49.999997"
       id="rect3" /></defs><path
     id="path18"
     style="fill:#59468d;fill-opacity:1;stroke-width:2.06846;paint-order:fill markers stroke"
     d="M 4.5170369 0 L 4.5170369 5.5712362 C 5.5259958 5.4011329 6.4285482 4.5888799 6.4285482 2.9424561 L 6.4285482 0 L 4.5170369 0 z M 7.2543376 0 L 7.2543376 2.9424561 C 7.2543376 4.9831974 5.9433218 6.206092 4.5170369 6.4042603 L 4.5170369 9.5771932 L 8.2088013 9.5771932 L 8.2088013 0 L 7.2543376 0 z M 0 1.3683919 L 0 10.945585 L 3.6907308 10.945585 L 3.6907308 6.4037435 C 2.2651547 6.2044547 0.95394574 4.9819596 0.95394694 2.9424561 L 0.95394694 1.3683919 L 0 1.3683919 z M 1.7823201 1.3683919 L 1.7823201 2.9424561 C 1.7823214 4.5874815 2.6828095 5.400704 3.6907308 5.5717529 L 3.6907308 1.3683919 L 1.7823201 1.3683919 z M 15.762862 1.4092163 C 15.440022 1.4092163 15.143642 1.4850556 14.873511 1.6365926 C 14.60338 1.7881299 14.389299 1.9989809 14.231173 2.2691121 C 14.073046 2.5359495 13.993978 2.8374326 13.993978 3.1734497 C 13.993978 3.5127612 14.073046 3.8174743 14.231173 4.0876058 C 14.389299 4.3544428 14.60338 4.5639373 14.873511 4.7154744 C 15.143642 4.8670115 15.440022 4.942334 15.762862 4.942334 C 16.085704 4.942334 16.382082 4.8670115 16.652214 4.7154744 C 16.922344 4.5639373 17.13507 4.3544428 17.289901 4.0876058 C 17.448028 3.8174743 17.527096 3.5127612 17.527096 3.1734497 C 17.527096 2.8374326 17.448028 2.5359495 17.289901 2.2691121 C 17.13507 1.9989809 16.922344 1.7881299 16.652214 1.6365926 C 16.385376 1.4850556 16.088998 1.4092163 15.762862 1.4092163 z M 26.816968 1.4092163 C 26.494128 1.4092163 26.197232 1.4850556 25.9271 1.6365926 C 25.656969 1.7881299 25.442886 1.9989809 25.284762 2.2691121 C 25.126635 2.5359495 25.047567 2.8374326 25.047567 3.1734497 C 25.047567 3.5127612 25.126635 3.8174743 25.284762 4.0876058 C 25.442886 4.3544428 25.656969 4.5639373 25.9271 4.7154744 C 26.197232 4.8670115 26.494128 4.942334 26.816968 4.942334 C 27.139806 4.942334 27.436188 4.8670115 27.706319 4.7154744 C 27.976452 4.5639373 28.188658 4.3544428 28.34349 4.0876058 C 28.501615 3.8174743 28.580684 3.5127612 28.580684 3.1734497 C 28.580684 2.8374326 28.501615 2.5359495 28.34349 2.2691121 C 28.188658 1.9989809 27.976452 1.7881299 27.706319 1.6365926 C 27.439483 1.4850556 27.143102 1.4092163 26.816968 1.4092163 z M 41.517362 1.4092163 C 41.194524 1.4092163 40.898143 1.4850556 40.628011 1.6365926 C 40.357879 1.7881299 40.1438 1.9989809 39.985673 2.2691121 C 39.827547 2.5359495 39.748478 2.8374326 39.748478 3.1734497 C 39.748478 3.5127612 39.827547 3.8174743 39.985673 4.0876058 C 40.1438 4.3544428 40.357879 4.5639373 40.628011 4.7154744 C 40.898143 4.8670115 41.194524 4.942334 41.517362 4.942334 C 41.840204 4.942334 42.1371 4.8670115 42.407231 4.7154744 C 42.677361 4.5639373 42.889571 4.3544428 43.044401 4.0876058 C 43.202528 3.8174743 43.281596 3.5127612 43.281596 3.1734497 C 43.281596 2.8374326 43.202528 2.5359495 43.044401 2.2691121 C 42.889571 1.9989809 42.677361 1.7881299 42.407231 1.6365926 C 42.140393 1.4850556 41.843497 1.4092163 41.517362 1.4092163 z M 11.948108 1.414384 C 11.61868 1.414384 11.320425 1.4902231 11.053589 1.6417603 C 10.790044 1.7900032 10.581067 1.9989809 10.426237 2.2691121 C 10.2747 2.5359495 10.198861 2.8393061 10.198861 3.1786174 C 10.198861 3.5179288 10.2747 3.8207686 10.426237 4.0876058 C 10.581067 4.3544428 10.790044 4.5639373 11.053589 4.7154744 C 11.320425 4.8637173 11.61868 4.9376831 11.948108 4.9376831 C 12.336835 4.9376831 12.674362 4.8405909 12.960966 4.646228 C 13.250864 4.4485708 13.45338 4.173444 13.568681 3.8209554 L 12.773381 3.8209554 C 12.694317 3.9856696 12.581917 4.1109915 12.436967 4.1966431 C 12.295313 4.2790002 12.130715 4.3201497 11.94294 4.3201497 C 11.741989 4.3201497 11.562599 4.273897 11.404472 4.1816569 C 11.249641 4.0861227 11.127549 3.9524674 11.038603 3.7811646 C 10.952951 3.6065673 10.910445 3.4059231 10.910445 3.1786174 C 10.910445 2.9480173 10.952951 2.7468561 11.038603 2.5755534 C 11.127549 2.4042505 11.249641 2.2724687 11.404472 2.1802287 C 11.562599 2.0846944 11.741989 2.037085 11.94294 2.037085 C 12.130715 2.037085 12.295313 2.0782344 12.436967 2.1605916 C 12.581917 2.2429488 12.694317 2.3663973 12.773381 2.5311117 L 13.568681 2.5311117 C 13.45338 2.1819173 13.250864 1.9086638 12.960966 1.7110067 C 12.671068 1.5133496 12.333541 1.414384 11.948108 1.414384 z M 18.040759 1.453658 L 18.040759 4.9082275 L 18.732707 4.9082275 L 18.732707 2.5409302 L 20.299019 4.9082275 L 20.990967 4.9082275 L 20.990967 1.453658 L 20.299019 1.453658 L 20.299019 3.8256063 L 18.732707 1.453658 L 18.040759 1.453658 z M 34.911047 1.453658 L 34.911047 4.9082275 L 35.602478 4.9082275 L 35.602478 2.5409302 L 37.169307 4.9082275 L 37.860738 4.9082275 L 37.860738 1.453658 L 37.169307 1.453658 L 37.169307 3.8256063 L 35.602478 1.453658 L 34.911047 1.453658 z M 21.672579 1.4588257 L 21.672579 4.9082275 L 22.878707 4.9082275 C 23.241078 4.9082275 23.558711 4.836975 23.832137 4.6953206 C 24.108857 4.5536666 24.321581 4.3543788 24.469824 4.0974243 C 24.621361 3.8371758 24.696684 3.5343358 24.696684 3.1884359 C 24.696684 2.8425359 24.621361 2.5391792 24.469824 2.2789307 C 24.321581 2.0153877 24.108857 1.8128702 23.832137 1.6712158 C 23.558711 1.5295616 23.241078 1.4588257 22.878707 1.4588257 L 21.672579 1.4588257 z M 29.094865 1.4588257 L 29.094865 4.9082275 L 29.786812 4.9082275 L 29.786812 2.6644368 L 30.715438 4.9082275 L 31.239437 4.9082275 L 32.163411 2.6644368 L 32.163411 4.9082275 L 32.855359 4.9082275 L 32.855359 1.4588257 L 32.074528 1.4588257 L 30.977437 4.023527 L 29.880347 1.4588257 L 29.094865 1.4588257 z M 33.536971 1.4588257 L 33.536971 4.9082275 L 34.228918 4.9082275 L 34.228918 1.4588257 L 33.536971 1.4588257 z M 38.542867 1.4588257 L 38.542867 4.9082275 L 39.234814 4.9082275 L 39.234814 1.4588257 L 38.542867 1.4588257 z M 15.762862 2.0319173 C 15.970403 2.0319173 16.153024 2.0781701 16.311149 2.1704102 C 16.469276 2.2626502 16.592724 2.3963053 16.681669 2.5709025 C 16.770616 2.7422052 16.815511 2.9428496 16.815511 3.1734497 C 16.815511 3.4040497 16.770616 3.6065673 16.681669 3.7811646 C 16.592724 3.9557616 16.469276 4.0907734 16.311149 4.1863078 C 16.153024 4.2785477 15.970403 4.3248006 15.762862 4.3248006 C 15.555323 4.3248006 15.370827 4.2785477 15.209408 4.1863078 C 15.051282 4.0907734 14.927833 3.9557616 14.838888 3.7811646 C 14.749942 3.6065673 14.705562 3.4040497 14.705562 3.1734497 C 14.705562 2.9428496 14.749942 2.7422052 14.838888 2.5709025 C 14.927833 2.3963053 15.051282 2.2626502 15.209408 2.1704102 C 15.370827 2.0781701 15.555323 2.0319173 15.762862 2.0319173 z M 26.816968 2.0319173 C 27.024508 2.0319173 27.20713 2.0781701 27.365255 2.1704102 C 27.52338 2.2626502 27.646827 2.3963053 27.735775 2.5709025 C 27.82472 2.7422052 27.8691 2.9428496 27.8691 3.1734497 C 27.8691 3.4040497 27.82472 3.6065673 27.735775 3.7811646 C 27.646828 3.9557616 27.52338 4.0907734 27.365255 4.1863078 C 27.20713 4.2785477 27.024508 4.3248006 26.816968 4.3248006 C 26.609427 4.3248006 26.424933 4.2785477 26.263513 4.1863078 C 26.105387 4.0907734 25.981938 3.9557616 25.892993 3.7811646 C 25.804047 3.6065673 25.759151 3.4040497 25.759151 3.1734497 C 25.759151 2.9428496 25.804047 2.7422052 25.892993 2.5709025 C 25.981938 2.3963053 26.105387 2.2626502 26.263513 2.1704102 C 26.424933 2.0781701 26.609427 2.0319173 26.816968 2.0319173 z M 41.517362 2.0319173 C 41.724903 2.0319173 41.90804 2.0781701 42.066166 2.1704102 C 42.224292 2.2626502 42.34774 2.3963053 42.436686 2.5709025 C 42.525631 2.7422052 42.570011 2.9428496 42.570011 3.1734497 C 42.570011 3.4040497 42.525631 3.6065673 42.436686 3.7811646 C 42.34774 3.9557616 42.224292 4.0907734 42.066166 4.1863078 C 41.90804 4.2785477 41.724903 4.3248006 41.517362 4.3248006 C 41.309825 4.3248006 41.125329 4.2785477 40.963908 4.1863078 C 40.805783 4.0907734 40.682334 3.9557616 40.593388 3.7811646 C 40.504442 3.6065673 40.460063 3.4040497 40.460063 3.1734497 C 40.460063 2.9428496 40.504442 2.7422052 40.593388 2.5709025 C 40.682334 2.3963053 40.805783 2.2626502 40.963908 2.1704102 C 41.125329 2.0781701 41.309825 2.0319173 41.517362 2.0319173 z M 22.364526 2.0417358 L 22.853902 2.0417358 C 23.216274 2.0417358 23.495988 2.1439314 23.693644 2.3481771 C 23.891302 2.5491284 23.990267 2.8293586 23.990267 3.1884359 C 23.990267 3.547513 23.891302 3.8258699 23.693644 4.023527 C 23.495987 4.2211842 23.216274 4.3201497 22.853902 4.3201497 L 22.364526 4.3201497 L 22.364526 2.0417358 z M 14.41359 5.9923991 C 14.176367 5.9923991 13.965577 6.0335364 13.781071 6.1159058 C 13.596562 6.1949802 13.45326 6.3105783 13.351123 6.4621379 C 13.248985 6.6136972 13.198161 6.7916795 13.198161 6.9959554 C 13.198161 7.2134104 13.247628 7.3881636 13.346472 7.5199544 C 13.44861 7.6484504 13.568794 7.745514 13.707174 7.8114095 C 13.848848 7.8740102 14.031416 7.9382671 14.255461 8.0041626 C 14.4202 8.0502894 14.548714 8.0927831 14.640967 8.1323201 C 14.736516 8.1685648 14.815562 8.2199059 14.878162 8.2857992 C 14.940762 8.3516951 14.972213 8.4358422 14.972213 8.5379801 C 14.972213 8.6631814 14.925972 8.7653468 14.83372 8.8444214 C 14.741466 8.9202006 14.614825 8.9581095 14.453381 8.9581095 C 14.295232 8.9581095 14.169948 8.9164554 14.077694 8.8340861 C 13.988732 8.7517168 13.939262 8.6398645 13.929382 8.4981893 L 13.188342 8.4981893 C 13.191636 8.7090551 13.248918 8.8921392 13.360942 9.046993 C 13.472963 9.2018475 13.624598 9.3201576 13.815694 9.4025269 C 14.010085 9.4848961 14.227848 9.5260335 14.468368 9.5260335 C 14.722065 9.5260335 14.941185 9.4803107 15.125692 9.3880575 C 15.3102 9.2925089 15.449756 9.1653513 15.545304 9.0072021 C 15.640854 8.849053 15.688965 8.6780456 15.688965 8.4935384 C 15.688965 8.2793786 15.637624 8.1059814 15.535486 7.9741903 C 15.433348 7.8423992 15.31181 7.7439796 15.170133 7.6780843 C 15.028459 7.6121888 14.845374 7.5460588 14.62133 7.4801636 C 14.456591 7.4307422 14.328077 7.3877319 14.235824 7.3514893 C 14.146864 7.311952 14.071047 7.2624838 14.008447 7.2031779 C 13.949141 7.1405772 13.919564 7.0634044 13.919564 6.9711507 C 13.919564 6.83936 13.959344 6.7390674 14.03842 6.6698771 C 14.120788 6.600687 14.229411 6.5660075 14.364498 6.5660075 C 14.519352 6.5660075 14.642765 6.6052721 14.735018 6.6843465 C 14.830558 6.7601263 14.88138 6.8577066 14.88798 6.9763184 L 15.649174 6.9763184 C 15.626111 6.6666099 15.502698 6.4257268 15.278654 6.2543986 C 15.057904 6.0797757 14.769426 5.9923991 14.41359 5.9923991 z M 23.057507 5.9923991 C 22.734621 5.9923991 22.438328 6.0682159 22.168156 6.2197754 C 21.897985 6.3713349 21.68345 6.5821237 21.525301 6.8522949 C 21.367152 7.1191715 21.288106 7.4210827 21.288106 7.7571493 C 21.288106 8.096511 21.367152 8.4011343 21.525301 8.6713053 C 21.68345 8.9381817 21.897985 9.1470974 22.168156 9.2986572 C 22.438328 9.4502164 22.734621 9.5260335 23.057507 9.5260335 C 23.380396 9.5260335 23.677204 9.4502164 23.947375 9.2986572 C 24.217547 9.1470974 24.429692 8.9381817 24.584546 8.6713053 C 24.742694 8.4011343 24.821741 8.096511 24.821741 7.7571493 C 24.821741 7.4210827 24.742694 7.1191715 24.584546 6.8522949 C 24.429692 6.5821237 24.217547 6.3713349 23.947375 6.2197754 C 23.680498 6.0682159 23.38369 5.9923991 23.057507 5.9923991 z M 29.205452 5.9923991 C 28.882565 5.9923991 28.586273 6.0682159 28.316101 6.2197754 C 28.045929 6.3713349 27.83191 6.5821237 27.673763 6.8522949 C 27.515613 7.1191715 27.436568 7.4210827 27.436568 7.7571493 C 27.436568 8.096511 27.515613 8.4011343 27.673763 8.6713053 C 27.83191 8.9381817 28.045929 9.1470974 28.316101 9.2986572 C 28.586273 9.4502164 28.882565 9.5260335 29.205452 9.5260335 C 29.528339 9.5260335 29.82515 9.4502164 30.095321 9.2986572 C 30.365492 9.1470974 30.578153 8.9381817 30.733008 8.6713053 C 30.891157 8.4011343 30.970203 8.096511 30.970203 7.7571493 C 30.970203 7.4210827 30.891157 7.1191715 30.733008 6.8522949 C 30.578153 6.5821237 30.365492 6.3713349 30.095321 6.2197754 C 29.828446 6.0682159 29.531635 5.9923991 29.205452 5.9923991 z M 42.050146 5.9923991 C 41.727259 5.9923991 41.430966 6.0682159 41.160795 6.2197754 C 40.890622 6.3713349 40.676604 6.5821237 40.518457 6.8522949 C 40.360308 7.1191715 40.281262 7.4210827 40.281262 7.7571493 C 40.281262 8.096511 40.360308 8.4011343 40.518457 8.6713053 C 40.676604 8.9381817 40.890622 9.1470974 41.160795 9.2986572 C 41.430966 9.4502164 41.727259 9.5260335 42.050146 9.5260335 C 42.373033 9.5260335 42.669844 9.4502164 42.940015 9.2986572 C 43.210186 9.1470974 43.422847 8.9381817 43.577702 8.6713053 C 43.735852 8.4011343 43.814897 8.096511 43.814897 7.7571493 C 43.814897 7.4210827 43.735852 7.1191715 43.577702 6.8522949 C 43.422847 6.5821237 43.210186 6.3713349 42.940015 6.2197754 C 42.673139 6.0682159 42.376329 5.9923991 42.050146 5.9923991 z M 19.242236 5.9975667 C 18.912759 5.9975667 18.614593 6.0733836 18.347717 6.224943 C 18.084135 6.3732078 17.874702 6.5821237 17.719849 6.8522949 C 17.568289 7.1191715 17.492989 7.4224388 17.492989 7.7618001 C 17.492989 8.1011617 17.568289 8.4044289 17.719849 8.6713053 C 17.874702 8.9381817 18.084135 9.1470974 18.347717 9.2986572 C 18.614593 9.4469217 18.912759 9.5213826 19.242236 9.5213826 C 19.631019 9.5213826 19.968965 9.4243194 20.255611 9.2299276 C 20.545552 9.0322418 20.748009 8.7566792 20.863326 8.4041382 L 20.067509 8.4041382 C 19.988434 8.5688767 19.876583 8.6941613 19.731612 8.7798258 C 19.589937 8.8621951 19.42487 8.9033325 19.237069 8.9033325 C 19.036088 8.9033325 18.856749 8.8576104 18.6986 8.7653564 C 18.543746 8.6698085 18.42169 8.5361926 18.332731 8.3648641 C 18.247066 8.1902409 18.204574 7.9891392 18.204574 7.7618001 C 18.204574 7.5311661 18.247066 7.3300642 18.332731 7.1587362 C 18.42169 6.987408 18.543746 6.855665 18.6986 6.7634115 C 18.856749 6.667863 19.036088 6.6202677 19.237069 6.6202677 C 19.42487 6.6202677 19.589937 6.661405 19.731612 6.7437744 C 19.876583 6.8261435 19.988434 6.9495558 20.067509 7.1142944 L 20.863326 7.1142944 C 20.748009 6.7650486 20.545552 6.4918757 20.255611 6.2941895 C 19.965671 6.0965032 19.627725 5.9975667 19.242236 5.9975667 z M 33.0755 5.9975667 C 32.746023 5.9975667 32.445985 6.0733836 32.175814 6.224943 C 31.908937 6.3732078 31.698149 6.5821237 31.543294 6.8522949 C 31.391735 7.1191715 31.315918 7.4224388 31.315918 7.7618001 C 31.315918 8.1011617 31.391735 8.4044289 31.543294 8.6713053 C 31.698149 8.9381817 31.908937 9.1470974 32.175814 9.2986572 C 32.445985 9.4469217 32.74738 9.5213826 33.080151 9.5213826 C 33.376681 9.5213826 33.643912 9.4603546 33.881136 9.3384481 C 34.121654 9.2132469 34.317655 9.0486972 34.469214 8.8444214 C 34.620774 8.6401456 34.71971 8.4177971 34.765837 8.1772786 L 34.765837 7.5742147 L 32.897217 7.5742147 L 32.897217 8.1028646 L 34.083708 8.1028646 C 34.030992 8.3532677 33.920496 8.5492672 33.752462 8.6909424 C 33.584428 8.8293222 33.368536 8.8986816 33.104956 8.8986816 C 32.890795 8.8986816 32.703127 8.852442 32.541683 8.7601888 C 32.380239 8.6679356 32.253081 8.5361926 32.160828 8.3648641 C 32.071868 8.1935356 32.027502 7.9924338 32.027502 7.7618001 C 32.027502 7.5377558 32.071868 7.3403997 32.160828 7.1690715 C 32.249786 6.9977434 32.373716 6.8654836 32.531864 6.77323 C 32.690013 6.6809763 32.871223 6.6352539 33.0755 6.6352539 C 33.260007 6.6352539 33.421327 6.6731623 33.559709 6.7489421 C 33.698089 6.8247218 33.806712 6.9347013 33.885787 7.0796712 L 34.681604 7.0796712 C 34.572876 6.737015 34.375004 6.4721729 34.088359 6.2843709 C 33.801714 6.0932741 33.464283 5.9975667 33.0755 5.9975667 z M 38.234875 5.9975667 C 37.905398 5.9975667 37.607234 6.0733836 37.340356 6.224943 C 37.076775 6.3732078 36.867858 6.5821237 36.713005 6.8522949 C 36.561444 7.1191715 36.485628 7.4224388 36.485628 7.7618001 C 36.485628 8.1011617 36.561444 8.4044289 36.713005 8.6713053 C 36.867858 8.9381817 37.076775 9.1470974 37.340356 9.2986572 C 37.607234 9.4469217 37.905398 9.5213826 38.234875 9.5213826 C 38.623658 9.5213826 38.961605 9.4243194 39.24825 9.2299276 C 39.53819 9.0322418 39.740649 8.7566792 39.855965 8.4041382 L 39.060148 8.4041382 C 38.981073 8.5688767 38.86922 8.6941613 38.724251 8.7798258 C 38.582576 8.8621951 38.418026 8.9033325 38.230225 8.9033325 C 38.029243 8.9033325 37.849389 8.8576104 37.691239 8.7653564 C 37.536385 8.6698085 37.414329 8.5361926 37.32537 8.3648641 C 37.239707 8.1902409 37.197213 7.9891392 37.197213 7.7618001 C 37.197213 7.5311661 37.239707 7.3300642 37.32537 7.1587362 C 37.414329 6.987408 37.536385 6.855665 37.691239 6.7634115 C 37.849389 6.667863 38.029243 6.6202677 38.230225 6.6202677 C 38.418026 6.6202677 38.582576 6.661405 38.724251 6.7437744 C 38.86922 6.8261435 38.981073 6.9495558 39.060148 7.1142944 L 39.855965 7.1142944 C 39.740649 6.7650486 39.53819 6.4918757 39.24825 6.2941895 C 38.958311 6.0965032 38.620364 5.9975667 38.234875 5.9975667 z M 10.272241 6.0420085 L 10.272241 9.4914103 L 10.964189 9.4914103 L 10.964189 8.1669434 L 11.542448 8.1669434 C 11.825797 8.1669434 12.059707 8.1174755 12.244214 8.018632 C 12.432016 7.9197889 12.56886 7.7899188 12.654525 7.6284749 C 12.743484 7.4670312 12.78785 7.2941508 12.78785 7.1096436 C 12.78785 6.9053677 12.740255 6.7222835 12.644706 6.5608398 C 12.552453 6.399396 12.412379 6.2727549 12.224577 6.1805013 C 12.036774 6.0882476 11.809323 6.0420085 11.542448 6.0420085 L 10.272241 6.0420085 z M 16.286861 6.0420085 L 16.286861 9.4914103 L 16.978809 9.4914103 L 16.978809 6.0420085 L 16.286861 6.0420085 z M 25.335921 6.0420085 L 25.335921 9.4914103 L 27.16475 9.4914103 L 27.16475 8.9431234 L 26.027869 8.9431234 L 26.027869 6.0420085 L 25.335921 6.0420085 z M 35.2795 6.0420085 L 35.2795 9.4914103 L 35.971448 9.4914103 L 35.971448 6.0420085 L 35.2795 6.0420085 z M 10.964189 6.6052816 L 11.512476 6.6052816 C 11.888079 6.6052816 12.076265 6.7735768 12.076265 7.1096436 C 12.076265 7.2677925 12.030025 7.3912047 11.937773 7.4801636 C 11.845519 7.5658276 11.703572 7.6088379 11.512476 7.6088379 L 10.964189 7.6088379 L 10.964189 6.6052816 z M 23.057507 6.6151001 C 23.265078 6.6151001 23.448161 6.6613394 23.606311 6.7535929 C 23.76446 6.8458466 23.887872 6.9794623 23.976831 7.1540853 C 24.06579 7.3254133 24.110156 7.5265153 24.110156 7.7571493 C 24.110156 7.9877831 24.06579 8.1902409 23.976831 8.3648641 C 23.887872 8.5394873 23.76446 8.6744594 23.606311 8.7700073 C 23.448161 8.8622612 23.265078 8.9085002 23.057507 8.9085002 C 22.849936 8.9085002 22.665495 8.8622612 22.504053 8.7700073 C 22.345903 8.6744594 22.22249 8.5394873 22.133533 8.3648641 C 22.044573 8.1902409 22.000208 7.9877831 22.000208 7.7571493 C 22.000208 7.5265153 22.044573 7.3254133 22.133533 7.1540853 C 22.22249 6.9794623 22.345903 6.8458466 22.504053 6.7535929 C 22.665495 6.6613394 22.849936 6.6151001 23.057507 6.6151001 z M 29.205452 6.6151001 C 29.413024 6.6151001 29.596108 6.6613394 29.754256 6.7535929 C 29.912405 6.8458466 30.035818 6.9794624 30.124776 7.1540853 C 30.213735 7.3254133 30.258101 7.5265153 30.258101 7.7571493 C 30.258101 7.9877832 30.213735 8.1902409 30.124776 8.3648641 C 30.035818 8.5394866 29.912405 8.6744588 29.754256 8.7700073 C 29.596108 8.8622612 29.413024 8.9085002 29.205452 8.9085002 C 28.997881 8.9085002 28.813441 8.8622612 28.651998 8.7700073 C 28.493849 8.6744588 28.370437 8.5394866 28.281478 8.3648641 C 28.192519 8.1902409 28.148153 7.9877831 28.148153 7.7571493 C 28.148153 7.5265153 28.192519 7.3254133 28.281478 7.1540853 C 28.370437 6.9794623 28.493849 6.8458466 28.651998 6.7535929 C 28.813441 6.6613394 28.997881 6.6151001 29.205452 6.6151001 z M 42.050146 6.6151001 C 42.257717 6.6151001 42.440801 6.6613394 42.59895 6.7535929 C 42.757098 6.8458466 42.880511 6.9794623 42.96947 7.1540853 C 43.058429 7.3254133 43.102795 7.5265153 43.102795 7.7571493 C 43.102795 7.9877831 43.058429 8.1902409 42.96947 8.3648641 C 42.880511 8.5394873 42.757098 8.6744594 42.59895 8.7700073 C 42.440801 8.8622612 42.257717 8.9085002 42.050146 8.9085002 C 41.842575 8.9085002 41.658136 8.8622612 41.496692 8.7700073 C 41.338543 8.6744594 41.21513 8.5394873 41.126172 8.3648641 C 41.037213 8.1902409 40.992847 7.9877831 40.992847 7.7571493 C 40.992847 7.5265153 41.037213 7.3254133 41.126172 7.1540853 C 41.21513 6.9794623 41.338543 6.8458466 41.496692 6.7535929 C 41.658136 6.6613394 41.842575 6.6151001 42.050146 6.6151001 z " /></svg>
