<?xml version="1.0" encoding="UTF-8" standalone="no"?>
<!-- Created with Inkscape (http://www.inkscape.org/) -->

<svg
   width="60.000038mm"
   height="60.000019mm"
   viewBox="0 0 60.000038 60.000019"
   version="1.1"
   id="svg1"
   xml:space="preserve"
   inkscape:version="1.3.2 (091e20e, 2023-11-25, custom)"
   sodipodi:docname="relations.svg"
   xmlns:inkscape="http://www.inkscape.org/namespaces/inkscape"
   xmlns:sodipodi="http://sodipodi.sourceforge.net/DTD/sodipodi-0.dtd"
   xmlns="http://www.w3.org/2000/svg"
   xmlns:svg="http://www.w3.org/2000/svg"><sodipodi:namedview
     id="namedview1"
     pagecolor="#ffffff"
     bordercolor="#000000"
     borderopacity="0.25"
     inkscape:showpageshadow="2"
     inkscape:pageopacity="0.0"
     inkscape:pagecheckerboard="0"
     inkscape:deskcolor="#d1d1d1"
     inkscape:document-units="mm"
     inkscape:zoom="0.4692046"
     inkscape:cx="253.6207"
     inkscape:cy="267.47393"
     inkscape:window-width="1366"
     inkscape:window-height="745"
     inkscape:window-x="-8"
     inkscape:window-y="-8"
     inkscape:window-maximized="1"
     inkscape:current-layer="layer1"
     showguides="false" /><defs
     id="defs1" /><g
     inkscape:label="Layer 1"
     inkscape:groupmode="layer"
     id="layer1"
     transform="translate(-423.86271,-68.79167)"><path
       id="path44"
       style="fill:#59468d;fill-opacity:1;stroke-width:18;stroke-linecap:round;paint-order:fill markers stroke"
       d="M 483.86275,98.791673 A 30,30 0 0 1 453.86273,128.79169 30,30 0 0 1 423.86271,98.791673 30,30 0 0 1 453.86273,68.79167 30,30 0 0 1 483.86275,98.791673 Z" /><path
       id="path48"
       style="color:#000000;fill:#ffffff;stroke-linecap:round;stroke-linejoin:round;-inkscape-stroke:none;paint-order:fill markers stroke"
       d="m 473.74834,76.337976 c -0.47906,0.08776 -0.95677,0.179676 -1.42472,0.290422 -4.61375,1.091904 -8.66114,3.219815 -10.4376,6.289021 -3.15437,5.44983 -2.30774,7.689006 -2.78329,11.210686 -0.20877,1.546116 -1.03242,2.408534 -2.00608,3.339847 -0.48682,0.465658 -1.0084,0.92681 -1.45314,1.505852 -0.44474,0.57904 -0.80814,1.322666 -0.82993,2.191596 -0.0388,1.54608 0.87157,2.59539 1.68362,3.03703 0.40602,0.22079 0.77548,0.35417 1.02371,0.4687 0.24824,0.11454 0.33335,0.20496 0.31988,0.18552 0.29435,0.4245 0.33025,1.87684 0.24029,3.83801 -0.037,0.80761 -0.33224,1.59797 -0.26716,2.67787 0.0651,1.0799 0.6334,2.26067 1.99367,3.49229 1.70852,1.54694 4.18977,1.25253 6.35362,1.01545 1.08192,-0.11855 2.11628,-0.25547 2.93574,-0.27544 0.81947,-0.02 1.37491,0.12264 1.53686,0.24236 0.61145,0.45205 1.53497,2.04119 2.12338,3.48041 0.37462,0.91631 0.60667,1.6217 0.76068,2.11667 a 30,30 0 0 0 1.60817,-1.4919 c -0.14785,-0.42214 -0.31453,-0.87981 -0.51935,-1.3808 -0.63775,-1.55988 -1.43247,-3.33342 -2.78329,-4.33203 -0.81921,-0.60561 -1.78488,-0.65873 -2.77554,-0.63459 -0.99071,0.0242 -2.05447,0.1719 -3.10317,0.28681 -2.09747,0.22981 -4.01139,0.20002 -4.79506,-0.50953 -1.13191,-1.02486 -1.30605,-1.56625 -1.33997,-2.12907 -0.029,-0.48167 0.14483,-1.13154 0.22996,-2.01435 2.44044,0.53365 4.18334,-0.35725 5.50509,-1.11208 a 1,1 0 0 0 0.3731,-1.36322 1,1 0 0 0 -0.60513,-0.46871 1,1 0 0 0 -0.76016,0.0956 c -1.38709,0.79212 -2.31524,1.4149 -4.38319,0.82268 0.0642,-1.29555 0.0226,-2.47838 -0.68368,-3.49694 -0.33295,-0.48013 -0.77121,-0.69727 -1.12706,-0.86145 -0.35584,-0.16419 -0.66986,-0.28071 -0.90434,-0.40824 -0.46897,-0.25505 -0.66434,-0.29378 -0.64079,-1.23248 0.009,-0.37346 0.13303,-0.65002 0.41806,-1.02113 0.28504,-0.371098 0.73546,-0.789267 1.24799,-1.279508 1.02506,-0.98048 2.3116,-2.340911 2.60552,-4.517553 0.52985,-3.923846 -0.43666,-5.347953 2.53163,-10.476364 1.28488,-2.219909 4.88986,-4.331407 9.16792,-5.343859 0.90309,-0.213729 1.83653,-0.369653 2.77812,-0.485759 a 30,30 0 0 0 -1.81436,-1.751831 z m -39.77121,0.02119 a 30,30 0 0 0 -1.75287,1.752865 c 0.88574,0.114914 1.76412,0.262207 2.61483,0.463538 4.27807,1.012452 7.88096,3.12395 9.16585,5.343859 2.96833,5.128411 2.00333,6.552518 2.53318,10.476364 0.29392,2.176642 1.5784,3.537073 2.60346,4.517553 0.51253,0.490241 0.96501,0.90841 1.25005,1.279505 0.28503,0.37111 0.40869,0.64767 0.41806,1.02113 0.0236,0.9387 -0.17182,0.97743 -0.64079,1.23248 -0.23448,0.12753 -0.55004,0.24405 -0.90588,0.40824 -0.35584,0.16418 -0.79413,0.38132 -1.12707,0.86145 -0.71216,1.02703 -0.74717,2.22072 -0.68006,3.52898 -1.9876,0.53663 -2.90744,-0.0775 -4.26847,-0.85472 a 1,1 0 0 0 -1.36529,0.3731 1,1 0 0 0 0.3731,1.36322 c 1.30065,0.74279 3.01097,1.6176 5.39089,1.13688 0.0856,0.87012 0.25458,1.51233 0.22582,1.98955 -0.0339,0.56282 -0.20805,1.10421 -1.33997,2.12907 -0.78367,0.70955 -2.69552,0.73934 -4.79299,0.50953 -1.04874,-0.11491 -2.11505,-0.26266 -3.10575,-0.28681 -0.99071,-0.0241 -1.95586,0.029 -2.77502,0.63459 -1.35083,0.99861 -2.14555,2.77215 -2.7833,4.33203 -0.17817,0.43579 -0.33065,0.84479 -0.46612,1.22474 a 30,30 0 0 0 1.5782,1.57768 c 0.15935,-0.50477 0.39025,-1.19215 0.73949,-2.04639 0.5884,-1.43922 1.50932,-3.02836 2.1208,-3.48041 0.16195,-0.11972 0.71791,-0.26233 1.53737,-0.24236 0.81946,0.02 1.85381,0.15689 2.93574,0.27544 2.16385,0.23708 4.64459,0.53149 6.3531,-1.01545 1.36028,-1.23162 1.92912,-2.41239 1.9942,-3.49229 0.0651,-1.0799 -0.22858,-1.87026 -0.26562,-2.67787 -0.09,-1.96117 -0.0562,-3.41351 0.23823,-3.83801 -0.0135,0.0194 0.0722,-0.071 0.32039,-0.18552 0.24824,-0.11453 0.61768,-0.24791 1.02371,-0.4687 0.81205,-0.44164 1.72241,-1.49095 1.68362,-3.03703 -0.0218,-0.86893 -0.38569,-1.612553 -0.83044,-2.191593 -0.44474,-0.579042 -0.96631,-1.040194 -1.45314,-1.505852 -0.97366,-0.931313 -1.79678,-1.793731 -2.00556,-3.339847 -0.47555,-3.52168 0.37106,-5.760856 -2.7833,-11.210686 -1.77642,-3.069206 -5.82175,-5.197117 -10.43554,-6.289021 -0.43432,-0.102797 -0.87876,-0.186203 -1.32291,-0.269235 z m 7.02283,17.199984 c -1.72514,-0.01362 -3.04385,0.67391 -4.09588,1.274858 a 1,1 0 0 0 -0.37259,1.363224 1,1 0 0 0 1.36478,0.373104 c 1.43993,-0.822519 2.38533,-1.462593 4.62504,-0.749825 a 1,1 0 0 0 1.25625,-0.650606 1,1 0 0 0 -0.6506,-1.255738 c -0.70544,-0.224499 -1.35639,-0.33138 -1.95906,-0.351916 -0.0565,-0.0019 -0.1123,-0.0027 -0.16794,-0.0031 z m 24.68169,0 c -0.0557,4.39e-4 -0.11144,0.0012 -0.16795,0.0031 -0.60265,0.02054 -1.25361,0.127417 -1.95905,0.351916 a 1,1 0 0 0 -0.65061,1.255738 1,1 0 0 0 1.25833,0.650606 c 2.2397,-0.712768 3.18459,-0.07269 4.62452,0.749825 a 1,1 0 0 0 1.36374,-0.373104 1,1 0 0 0 -0.37155,-1.363224 c -1.05204,-0.600948 -2.37218,-1.288476 -4.09743,-1.274857 z" /><g
       id="g134"
       transform="translate(0,1.058334)" /></g></svg>
