<?xml version="1.0" encoding="UTF-8" standalone="no"?>
<!-- Created with Inkscape (http://www.inkscape.org/) -->

<svg
   width="60.000038mm"
   height="60.000019mm"
   viewBox="0 0 60.000038 60.000019"
   version="1.1"
   id="svg1"
   xml:space="preserve"
   inkscape:version="1.3.2 (091e20e, 2023-11-25, custom)"
   sodipodi:docname="selflove.svg"
   xmlns:inkscape="http://www.inkscape.org/namespaces/inkscape"
   xmlns:sodipodi="http://sodipodi.sourceforge.net/DTD/sodipodi-0.dtd"
   xmlns="http://www.w3.org/2000/svg"
   xmlns:svg="http://www.w3.org/2000/svg"><sodipodi:namedview
     id="namedview1"
     pagecolor="#ffffff"
     bordercolor="#000000"
     borderopacity="0.25"
     inkscape:showpageshadow="2"
     inkscape:pageopacity="0.0"
     inkscape:pagecheckerboard="0"
     inkscape:deskcolor="#d1d1d1"
     inkscape:document-units="mm"
     inkscape:zoom="0.47796914"
     inkscape:cx="-6.2765558"
     inkscape:cy="388.10037"
     inkscape:window-width="1366"
     inkscape:window-height="745"
     inkscape:window-x="-8"
     inkscape:window-y="-8"
     inkscape:window-maximized="1"
     inkscape:current-layer="layer1"
     showguides="false" /><defs
     id="defs1" /><g
     inkscape:label="Layer 1"
     inkscape:groupmode="layer"
     id="layer1"
     transform="translate(-561.44613,-68.79167)"><path
       id="path79"
       style="fill:#59468d;fill-opacity:1;stroke-width:18;stroke-linecap:round;paint-order:fill markers stroke"
       d="M 561.44613,98.791673 A 30,30 0 0 0 591.44615,128.79169 30,30 0 0 0 621.44617,98.791673 30,30 0 0 0 591.44615,68.79167 30,30 0 0 0 561.44613,98.791673 Z" /><g
       id="g82"
       transform="translate(122.23752,76.728847)"><path
         id="path80"
         style="color:#000000;fill:#ffffff;stroke-linecap:round;stroke-linejoin:round;-inkscape-stroke:none;paint-order:fill markers stroke"
         d="m 460.97649,5.5431345 c -3.23742,2e-7 -6.47521,1.2310711 -8.9395,3.6953816 -4.9067,4.9066469 -4.9266,12.8773869 -0.0636,17.8113159 0.017,0.01784 0.0331,0.03652 0.0501,0.05426 a 1.0001,1.0001 0 0 0 0.008,0.0072 c 0.002,0.0019 0.004,0.0038 0.006,0.0057 l 2.97811,2.977596 2.97605,2.977596 a 1.0001,1.0001 0 0 0 0.004,0.0026 l 10.50737,10.507369 a 1.0001,1.0001 0 0 0 1.41387,0 l 10.50944,-10.509436 10e-4,-10e-4 1.44022,-1.440739 4.51394,-4.513937 a 1.0001,1.0001 0 0 0 0.001,0 c 0.12735,-0.127856 0.25104,-0.259488 0.37259,-0.39274 0.0565,-0.06154 0.11184,-0.123652 0.16691,-0.186036 0.0442,-0.05046 0.0873,-0.101801 0.13074,-0.152962 4.24173,-4.961005 4.01931,-12.453144 -0.67282,-17.1452066 C 481.67049,4.531448 474.16966,4.374 469.20907,8.6623239 466.84454,6.6179418 463.92523,5.5431344 460.97649,5.5431345 Z m 0,1.9859253 c 2.72141,-2e-7 5.4435,1.0432322 7.52564,3.1253902 a 1.0001,1.0001 0 0 0 1.41387,0 c 4.16433,-4.1640315 10.88454,-4.1641979 15.04869,0 3.60306,3.603025 4.08197,9.117032 1.45004,13.235885 l -6.48797,-3.745508 c -0.87153,-0.503179 -1.82463,-0.760029 -2.76676,-0.785482 -2.07309,-0.05599 -4.10885,1.007243 -5.2157,2.92437 -1.60998,2.788573 -0.64858,6.370965 2.13992,7.980908 l 4.00647,2.313037 -8.88162,8.883179 -8.88267,-8.882662 4.00699,-2.313037 c 2.78851,-1.609943 3.74888,-5.194396 2.13889,-7.982976 -1.10685,-1.917125 -3.14157,-2.978822 -5.21467,-2.922819 -0.94213,0.02544 -1.89625,0.280752 -2.76779,0.783932 l -6.48849,3.748092 c -2.63275,-4.118936 -2.15338,-9.633518 1.45004,-13.236919 2.08215,-2.0821582 4.80373,-3.1253901 7.52512,-3.1253902 z m 0.33487,13.8291302 c 1.36065,-0.03676 2.6914,0.645906 3.42924,1.923913 1.07324,1.858904 0.45182,4.177565 -1.40714,5.250843 l -4.47053,2.581237 -5.39812,-5.397086 c -9.4e-4,-9.71e-4 -0.002,-0.0021 -0.003,-0.0031 -0.0721,-0.07567 -0.13087,-0.162827 -0.20102,-0.240295 l 6.22856,-3.59823 c 0.5808,-0.335325 1.20295,-0.500577 1.8216,-0.517281 z m 15.7949,0 c 0.61868,0.01672 1.23976,0.183507 1.82056,0.518831 v -5.17e-4 l 6.23476,3.599781 c -0.0592,0.06299 -0.11095,0.132473 -0.16898,0.19637 -0.01,0.0099 -0.018,0.02063 -0.0279,0.03049 l -4.81107,4.811593 -0.59893,0.59893 -4.47053,-2.581238 c -1.85897,-1.073279 -2.48142,-3.389871 -1.40818,-5.248775 0.73786,-1.27801 2.06964,-1.962207 3.43028,-1.925464 z" /></g><g
       id="g134"
       transform="translate(0,1.058334)" /></g></svg>
